<?xml version="1.0" encoding="UTF-8" standalone="no"?>
<!-- Created with Inkscape (http://www.inkscape.org/) -->

<svg
   xmlns:dc="http://purl.org/dc/elements/1.1/"
   xmlns:cc="http://creativecommons.org/ns#"
   xmlns:rdf="http://www.w3.org/1999/02/22-rdf-syntax-ns#"
   xmlns:svg="http://www.w3.org/2000/svg"
   xmlns="http://www.w3.org/2000/svg"
   xmlns:sodipodi="http://sodipodi.sourceforge.net/DTD/sodipodi-0.dtd"
   xmlns:inkscape="http://www.inkscape.org/namespaces/inkscape"
   width="210mm"
   height="297mm"
   viewBox="0 0 744.09448819 1052.3622047"
   id="svg2"
   version="1.1"
   inkscape:version="0.91 r13725"
   sodipodi:docname="bernunca-corpo.svg">
  <defs
     id="defs4" />
  <sodipodi:namedview
     id="base"
     pagecolor="#ffffff"
     bordercolor="#666666"
     borderopacity="1.0"
     inkscape:pageopacity="0.0"
     inkscape:pageshadow="2"
     inkscape:zoom="0.98994949"
     inkscape:cx="310.06999"
     inkscape:cy="947.6711"
     inkscape:document-units="px"
     inkscape:current-layer="layer1"
     showgrid="false"
     showguides="false"
     inkscape:window-width="1364"
     inkscape:window-height="734"
     inkscape:window-x="0"
     inkscape:window-y="16"
     inkscape:window-maximized="0" />
  <metadata
     id="metadata7">
    <rdf:RDF>
      <cc:Work
         rdf:about="">
        <dc:format>image/svg+xml</dc:format>
        <dc:type
           rdf:resource="http://purl.org/dc/dcmitype/StillImage" />
        <dc:title></dc:title>
      </cc:Work>
    </rdf:RDF>
  </metadata>
  <g
     inkscape:label="Layer 1"
     inkscape:groupmode="layer"
     id="layer1">
    <path
       style="fill:none;fill-rule:evenodd;stroke:#000000;stroke-width:0.92710108px;stroke-linecap:butt;stroke-linejoin:miter;stroke-opacity:1"
       d="m 408.8734,80.18047 c -9.00732,-0.0502 -16.08373,0.15046 -16.08373,0.15046 0,0 -26.38791,7.14569 -38.66137,2.14351 -10.17008,-4.14494 -19.93548,-0.68063 -23.4116,1.2994 -0.71912,0.40962 -3.15307,-2.24516 -2.36264,2.63005 0,0 3.36686,12.12626 3.66982,25.65768 0.29706,13.2682 1.26832,28.82022 2.40794,39.62471 0.71037,6.73513 -0.76984,12.31873 0.0588,14.03933 1.699,3.5281 11.6355,-0.0298 19.574,-1.59054 5.29222,-1.04047 5.94946,-0.53146 14.17751,-0.55297 1.75133,-0.005 0.39479,-1.21245 6.19857,-1.13722 13.4892,0.17482 36.10565,-1.50495 54.55546,1.49284 26.38791,4.28759 23.31931,-0.7132 23.31931,-0.7132 0,0 -3.06812,-72.88978 -6.13648,-78.60656 -1.91773,-3.57298 -22.29333,-4.35374 -37.30551,-4.43749 z"
       id="path3346-3-7-3-5-2-5"
       inkscape:connector-curvature="0"
       sodipodi:nodetypes="ccsscsscscsscscc" />
    <path
       style="fill:none;fill-rule:evenodd;stroke:#000000;stroke-width:0.95290339px;stroke-linecap:butt;stroke-linejoin:miter;stroke-opacity:1"
       d="m 327.74798,174.29544 c 0,0 26.04954,-1.80469 32.26703,-0.91986 6.21748,0.88486 64.30185,1.23878 65.93804,0 3.27327,-0.12684 9.55609,-0.0675 15.38736,-0.0232 4.75938,0.0362 9.24961,-0.0954 11.52561,-0.18857"
       id="path3378-5-6-4-0-3"
       inkscape:connector-curvature="0"
       sodipodi:nodetypes="cscsc" />
    <path
       style="fill:none;fill-rule:evenodd;stroke:#000000;stroke-width:0.88624299px;stroke-linecap:butt;stroke-linejoin:miter;stroke-opacity:1"
       d="m 327.74423,163.93621 c 0,0 4.30805,0.28009 5.99879,1.70909 1.69073,1.42902 0.84536,0.47634 0.84536,0.47634"
       id="path3400-1-7-6-5"
       inkscape:connector-curvature="0"
       sodipodi:nodetypes="csc" />
    <path
       style="fill:none;fill-rule:evenodd;stroke:#000000;stroke-width:0.81021947px;stroke-linecap:butt;stroke-linejoin:miter;stroke-opacity:1"
       d="m 446.14224,85.97299 c 5.46418,-1.69328 5.96026,-0.95635 6.71501,-0.98432"
       id="path3402-3-0-4-8-6"
       inkscape:connector-curvature="0"
       sodipodi:nodetypes="cc" />
    <path
       style="fill:none;fill-rule:evenodd;stroke:#000000;stroke-width:0.92710108px;stroke-linecap:butt;stroke-linejoin:miter;stroke-opacity:1"
       d="m 420.55072,173.91102 0.34489,3.61862 -0.38089,5.17701 0.15917,5.35999 -0.19987,4.56226 c 0,0 1.03394,2.08005 -9.16346,1.3221 -10.1974,-0.75794 -10.1465,-2.83799 -10.1465,-2.83799 0,0 1.08482,0 2.38662,-0.5053 1.3018,-0.50529 -2.38662,-1.51589 -2.38662,-1.51589 l 5.20717,-1.51588 0.44643,-5.2251 -0.44643,-4.88084 0,0 0,0 0,0 0,0 0,-3.41706"
       id="path3461-7-32-3-2-9"
       inkscape:connector-curvature="0"
       sodipodi:nodetypes="cccccscsccccccccc" />
    <path
       style="fill:none;fill-rule:evenodd;stroke:#000000;stroke-width:0.9305234px;stroke-linecap:butt;stroke-linejoin:miter;stroke-opacity:1"
       d="m 331.30469,101.24728 c 55.30337,-7.45245 43.17161,-11.49445 55.30337,-7.45245 12.13177,4.04202 14.09908,9.8524 29.61899,5.55777 15.51991,-4.29464 31.6956,-4.29464 31.6956,-4.29464 l 0,0 0,0 0.21859,0 0,0"
       id="path4659-8-4-1"
       inkscape:connector-curvature="0" />
    <path
       style="fill:none;fill-rule:evenodd;stroke:#000000;stroke-width:0.93466866px;stroke-linecap:butt;stroke-linejoin:miter;stroke-opacity:1"
       d="m 332.42332,122.45866 c 55.80325,-7.45165 43.56184,-11.49322 55.80325,-7.45165 12.24144,4.04158 14.22653,9.85132 29.88672,5.55717 15.66022,-4.29417 31.98213,-4.29417 31.98213,-4.29417 l 0,0 0,0 0.22056,0 0,0"
       id="path4659-5-6-9-2"
       inkscape:connector-curvature="0" />
    <path
       style="fill:none;fill-rule:evenodd;stroke:#000000;stroke-width:0.93122274px;stroke-linecap:butt;stroke-linejoin:miter;stroke-opacity:1"
       d="m 450.87785,132.21217 c 0,0 -4.59895,12.37423 -34.82058,6.81846 -30.22163,-5.55579 -13.57782,-3.5355 -48.1794,-6.06086 -34.6016,-2.52535 -34.38261,7.07099 -34.38261,7.07099 l 0,0 0,0 0,0"
       id="path4676-8-5-7"
       inkscape:connector-curvature="0" />
    <path
       style="fill:none;fill-rule:evenodd;stroke:#000000;stroke-width:0.92999578px;stroke-linecap:butt;stroke-linejoin:miter;stroke-opacity:1"
       d="m 451.50728,147.20256 c 0,0 -4.58623,12.37589 -34.72426,6.81937 -30.13801,-5.55652 -13.54025,-3.53598 -48.04613,-6.06167 -34.50586,-2.52568 -34.28746,7.07195 -34.28746,7.07195 l 0,0 0,0 0,0"
       id="path4676-2-8-0-0"
       inkscape:connector-curvature="0" />
    <path
       style="fill:none;fill-rule:evenodd;stroke:#000000;stroke-width:0.81258947px;stroke-linecap:butt;stroke-linejoin:miter;stroke-opacity:1"
       d="m 238.18479,166.72446 c -0.77245,8.55987 2.54451,8.56242 4.74579,8.29502 5.35304,-0.65024 17.68126,-2.23374 20.73651,-1.54547 4.21409,0.94934 43.58241,1.32908 44.69137,0 1.10896,-1.32903 16.74448,-0.1282 17.18806,0.25155 l 0.72923,0.42706 1.4282,-0.0316"
       id="path3378-5-2-1-8"
       inkscape:connector-curvature="0"
       sodipodi:nodetypes="csssccc" />
    <path
       inkscape:connector-curvature="0"
       style="fill:none;fill-rule:evenodd;stroke:#000000;stroke-width:0.77073264px;stroke-linecap:butt;stroke-linejoin:miter;stroke-opacity:1"
       d="m 294.46292,87.75992 c -4.91337,-0.1543 -17.40904,-3.22226 -21.96267,-4.96193 -9.82591,-3.7539 -12.6583,0.5681 -15.36813,2.32595 -32.27201,20.93462 -67.39589,-11.16978 -72.69156,-4.74846 -5.17947,4.84062 -3.90883,4.66733 0.54784,7.07 13.49976,7.27793 59.73929,29.64682 57.14084,27.64308 -3.01027,-3.61375 -46.90695,17.54256 -64.90624,17.47893 -4.01752,-0.0142 -0.88884,11.43971 2.07,11.56986 11.81946,0.51987 14.07402,-0.8826 50.69665,-5.47792 6.43604,-0.80758 12.50862,-8.21403 7.84868,5.96791 -3.083,9.38268 -3.50658,4.5082 -3.083,9.38268 0.53604,6.16872 2.95464,10.52516 3.57984,12.10107 1.28202,3.2314 8.77989,-0.0274 14.77012,-1.45679 3.99341,-0.95297 4.48935,-0.48677 10.69806,-0.50647 1.32151,-0.004 0.2979,-1.11049 4.67731,-1.04158 10.17866,0.16011 27.24457,-1.37839 41.16641,1.3673 19.91178,3.92701 17.59626,-0.65323 17.59626,-0.65323 0,0 -3.07274,-74.84127 -5.38806,-80.07731 -1.44709,-3.2725 -16.06446,4.09362 -27.39235,4.01691 z"
       id="path3346-3-7-4-5-2"
       sodipodi:nodetypes="csscscssssssscsscsc" />
    <path
       style="fill:none;fill-rule:evenodd;stroke:#000000;stroke-width:1px;stroke-linecap:butt;stroke-linejoin:miter;stroke-opacity:1"
       d="m 322.40968,84.87946 c 2.36146,-1.45188 1.40475,0.26829 2.95154,-0.86813 l 2.5096,-0.0158"
       id="path3722-6-0"
       inkscape:connector-curvature="0"
       sodipodi:nodetypes="ccc" />
    <path
       style="fill:none;fill-rule:evenodd;stroke:#000000;stroke-width:1.25170636px;stroke-linecap:butt;stroke-linejoin:miter;stroke-opacity:1"
       d="m 260.61054,101.62517 c 0,0 7.21678,-10.30606 16.2439,-3.13334 9.02712,7.17274 9.77939,9.96214 9.77939,9.96214 0,0 1.42857,3.30357 -10.92301,1.42857 -2.68766,-0.40799 -5.13525,-0.63123 -7.14709,-1.35707 -6.08903,-2.19694 -8.50978,-5.65027 -8.50978,-5.65027 z"
       id="path3686"
       inkscape:connector-curvature="0"
       sodipodi:nodetypes="cscsscc" />
    <path
       style="fill:none;fill-rule:evenodd;stroke:#000000;stroke-width:0.81477773px;stroke-linecap:butt;stroke-linejoin:miter;stroke-opacity:1"
       d="m 272.89416,100.32242 c 0.92902,0.25427 4.62919,-2.43581 4.73895,-1.19667 0.19767,2.23166 3.54093,3.50598 3.54093,3.50598 -4.48149,-1.52776 -3.1934,0.24269 -6.71932,0.84927 -4.59152,1.35045 -6.8528,-0.28034 -9.37784,-0.83984 -1.49369,-0.33098 -2.16014,-2.85845 -2.16014,-2.85845 4.62373,-7.66037 5.94986,1.62814 9.97742,0.53971 z"
       id="path3686-7"
       inkscape:connector-curvature="0"
       sodipodi:nodetypes="csccscc" />
    <path
       style="opacity:1;fill:#000000;fill-opacity:1;stroke:#000000;stroke-width:0.08928572;stroke-opacity:1"
       d="m 269.1894,103.34748 c -0.70281,-0.14811 -3.12784,-0.86206 -4.14223,-1.21951 -0.47987,-0.16909 -0.92181,-0.67781 -1.33731,-1.53939 l -0.31884,-0.66112 0.16912,-0.31551 c 0.21528,-0.40162 1.42456,-1.30159 2.50199,-1.86203 l 0.81867,-0.42585 0.32277,0.15392 c 0.17753,0.0847 0.81442,0.62842 1.41531,1.20835 1.3086,1.26297 1.67243,1.55204 2.35718,1.87283 0.46376,0.21727 0.61925,0.24333 1.41392,0.23698 1.00875,-0.008 1.38839,-0.10984 2.71602,-0.72816 0.47048,-0.21911 1.05195,-0.47644 1.29216,-0.57184 l 0.43676,-0.17345 0.20526,0.19284 c 0.1129,0.10606 0.3104,0.40771 0.43888,0.67031 0.12848,0.26261 0.4063,0.66823 0.61738,0.90137 l 0.38378,0.4239 -0.58976,0.15246 c -0.32437,0.0839 -0.95507,0.35767 -1.40155,0.60847 -0.6562,0.36861 -1.04976,0.51436 -2.05357,0.7605 -0.68298,0.16748 -1.50295,0.34683 -1.82215,0.39855 -0.90023,0.14588 -2.52277,0.10625 -3.42379,-0.0836 z"
       id="path3734"
       inkscape:connector-curvature="0" />
    <path
       style="fill:none;fill-rule:evenodd;stroke:#000000;stroke-width:0.81045389px;stroke-linecap:butt;stroke-linejoin:miter;stroke-opacity:1"
       d="m 452.75988,173.18203 c 0,0 17.47452,-0.071 21.66592,0.87849 2.05108,0.46464 12.98033,-1.73254 23.22082,-1.67427 10.68591,0.0608 20.66673,2.35304 21.22997,1.67427 1.07832,-1.2995 15.77701,-0.4268 16.93227,-0.27925 0.0977,0.0125 4.72391,-5.05897 0.93985,-8.42245"
       id="path3378-5-2-4-4-6"
       inkscape:connector-curvature="0"
       sodipodi:nodetypes="cssssc" />
    <path
       style="fill:none;fill-rule:evenodd;stroke:#000000;stroke-width:0.76214665px;stroke-linecap:butt;stroke-linejoin:miter;stroke-opacity:1"
       d="m 455.07416,82.93178 c -0.48488,0.41056 -2.21528,-0.91102 -1.68231,3.97539 0,0 2.27012,12.15413 2.4744,25.71665 0.20029,13.2987 0.85516,28.88648 1.62357,39.71581 0.47897,6.7506 -0.51908,12.34704 0.0397,14.0716 1.14556,3.53621 7.84532,-0.0299 13.19791,-1.59421 3.56831,-1.04285 4.01147,-0.53268 9.5593,-0.55424 1.18084,-0.005 0.26619,-1.21523 4.17943,-1.13982 9.09519,0.17521 24.3445,-1.50841 36.78444,1.49626 17.79225,4.29745 15.72322,-0.71483 15.72322,-0.71483 0,0 4.41884,-29.76844 2.65361,-48.50648 -0.67957,-7.21366 3.01507,-13.88567 3.10484,-15.57665 1.99612,-37.60013 -34.08755,-26.90027 -41.11047,-22.93988 -21.7987,8.46277 -33.78908,-5.21024 -46.54764,6.0504 z"
       id="path3346-3-7-5-9-6"
       inkscape:connector-curvature="0"
       sodipodi:nodetypes="ccsscscsscsscc" />
    <path
       style="fill:none;fill-rule:evenodd;stroke:#000000;stroke-width:1px;stroke-linecap:butt;stroke-linejoin:miter;stroke-opacity:1"
       d="m 531.02119,74.11418 c 0,0 -4.46428,-17.14285 7.14286,-19.64285 11.60714,-2.50001 13.39286,2.14285 15.71429,-6.42858 2.32142,-8.57143 2.32142,-8.57143 2.32142,-8.57143"
       id="path3739-3-3"
       inkscape:connector-curvature="0" />
    <path
       style="fill:none;fill-rule:evenodd;stroke:#000000;stroke-width:1px;stroke-linecap:butt;stroke-linejoin:miter;stroke-opacity:1"
       d="m 535.64837,77.15224 c 0,0 -4.99999,-15.26785 6.60715,-17.76784 11.60714,-2.50001 12.99771,1.81337 15.53571,-6.69644 l 3.03571,-10.17857"
       id="path3739-0-7-2"
       inkscape:connector-curvature="0"
       sodipodi:nodetypes="cssc" />
    <path
       style="fill:none;fill-rule:evenodd;stroke:#000000;stroke-width:1px;stroke-linecap:butt;stroke-linejoin:miter;stroke-opacity:1"
       d="m 560.93191,42.59633 -3.48214,2.5 -1.25,-5.44643 -6.16072,1.33929 4.64286,-3.57143 -3.83928,-5 6.16071,3.83929 6.25,-4.01786 -3.30357,5.26786 10.17857,-0.98215 -5.26786,2.94643 3.21429,6.16071 z"
       id="path3756-4-0"
       inkscape:connector-curvature="0" />
    <path
       style="fill:none;fill-rule:evenodd;stroke:#000000;stroke-width:1px;stroke-linecap:butt;stroke-linejoin:miter;stroke-opacity:1"
       d="m 457.49503,166.67334 c -2.33598,-3.283 -4.60882,-2.77792 -4.60882,-2.77792 l 0,0"
       id="path4776"
       inkscape:connector-curvature="0" />
    <path
       style="fill:none;fill-rule:evenodd;stroke:#000000;stroke-width:1px;stroke-linecap:butt;stroke-linejoin:miter;stroke-opacity:1"
       d="m 454.46457,94.51056 c 0,0 19.1929,-10.6066 31.8198,-3.78807 12.62691,6.81853 47.22464,8.5863 51.26525,2.52538 4.04061,-6.06091 4.04061,-6.06091 4.04061,-6.06091 l -0.25254,0.25254"
       id="path4796"
       inkscape:connector-curvature="0" />
    <path
       style="fill:none;fill-rule:evenodd;stroke:#000000;stroke-width:1px;stroke-linecap:butt;stroke-linejoin:miter;stroke-opacity:1"
       d="m 456.48487,116.22884 c 32.07235,-14.39467 3.03046,-17.67767 33.58758,-14.64721 30.55711,3.03046 19.19289,13.63706 34.34518,11.61676 15.15229,-2.02031 15.15229,-2.02031 15.15229,-2.02031 l 0,0 0,0 -0.25254,-0.25254 0,0 0,0.25254"
       id="path4798"
       inkscape:connector-curvature="0" />
    <path
       style="fill:none;fill-rule:evenodd;stroke:#000000;stroke-width:1px;stroke-linecap:butt;stroke-linejoin:miter;stroke-opacity:1"
       d="m 456.98995,131.12859 c 41.92133,9.09138 28.03173,18.94036 43.18402,8.5863 15.15229,-10.35406 34.59773,-14.89975 37.12311,-12.62691 2.52538,2.27285 2.27284,2.02031 2.27284,2.02031"
       id="path4800"
       inkscape:connector-curvature="0" />
    <path
       style="fill:none;fill-rule:evenodd;stroke:#000000;stroke-width:1px;stroke-linecap:butt;stroke-linejoin:miter;stroke-opacity:1"
       d="m 457.24249,144.51311 c 19.95051,-4.04061 20.96066,12.87945 20.96066,12.87945 0,0 30.80966,4.04061 45.70941,-5.55584 14.89975,-9.59645 15.15228,-9.84899 15.15228,-9.84899"
       id="path4802"
       inkscape:connector-curvature="0" />
    <path
       style="fill:none;fill-rule:evenodd;stroke:#000000;stroke-width:1.06211865px;stroke-linecap:butt;stroke-linejoin:miter;stroke-opacity:1"
       d="m 289.27646,87.03833 c 0,0 22.84288,13.70687 19.98751,22.97916 -2.85536,9.2723 -10.35067,21.36659 -16.41831,22.97917 -6.06764,1.61257 -33.01609,5.91663 -36.40583,9.67543 -4.10402,4.55085 -10.16765,8.21429 -10.16765,8.21429 L 235.5579,150.7078"
       id="path4804"
       inkscape:connector-curvature="0"
       sodipodi:nodetypes="cssscc" />
    <path
       style="fill:none;fill-rule:evenodd;stroke:#000000;stroke-width:1px;stroke-linecap:butt;stroke-linejoin:miter;stroke-opacity:1"
       d="m 323.39286,101.64792 c -9.28572,1.42857 -3.21429,5.17857 -10.35715,1.60714 -7.14285,-3.57143 -8.57142,-4.28571 -8.57142,-4.28571"
       id="path4806"
       inkscape:connector-curvature="0" />
    <path
       style="fill:none;fill-rule:evenodd;stroke:#000000;stroke-width:1px;stroke-linecap:butt;stroke-linejoin:miter;stroke-opacity:1"
       d="m 325,123.25506 c -22.32143,6.60714 -18.75,-0.71429 -23.03571,6.60714 -4.98204,8.511 -9.10714,7.50001 -9.10714,7.50001 0,0 -3.92858,-0.35715 -5.53572,-1.42858 -1.60714,-1.07143 -1.78572,-1.25 -1.78572,-1.25"
       id="path4808"
       inkscape:connector-curvature="0"
       sodipodi:nodetypes="cscsc" />
    <path
       style="fill:none;fill-rule:evenodd;stroke:#000000;stroke-width:1px;stroke-linecap:butt;stroke-linejoin:miter;stroke-opacity:1"
       d="m 325.89286,143.96935 c 0,0 -16.07143,6.96428 -23.75001,2.67857 -7.37492,-4.11623 -21.25,1.25 -24.28571,-2.67857 -3.03571,-3.92857 -18.92857,-2.67857 -18.92857,-2.67857"
       id="path4810"
       inkscape:connector-curvature="0"
       sodipodi:nodetypes="cssc" />
    <path
       style="fill:none;fill-rule:evenodd;stroke:#000000;stroke-width:1px;stroke-linecap:butt;stroke-linejoin:miter;stroke-opacity:1"
       d="m 326.96429,157.89792 c 0,0 -9.37654,2.82698 -19.70245,1.81856 -7.45912,-0.72846 -15.2715,-1.41321 -20.65469,-6.46141 -8.86992,-8.31795 -48.21429,11.60714 -48.21429,11.60714"
       id="path4812"
       inkscape:connector-curvature="0"
       sodipodi:nodetypes="cssc" />
    <path
       style="fill:none;fill-rule:evenodd;stroke:#000000;stroke-width:0.82973915px;stroke-linecap:butt;stroke-linejoin:miter;stroke-opacity:1"
       d="m 379.98028,173.69713 0.34672,2.88318 -0.38292,4.12486 0.16002,4.27064 -0.20093,3.63505 c 0,0 1.03943,1.65731 -9.21211,1.0534 -10.25154,-0.6039 -10.20036,-2.26121 -10.20036,-2.26121 0,0 1.09057,0 2.39929,-0.4026 1.30871,-0.4026 -2.39929,-1.20781 -2.39929,-1.20781 l 5.23481,-1.2078 0.4488,-4.16317 -0.4488,-3.88887 0,0 0,0 0,0 0,0 0,-2.72259"
       id="path3461-7-32-3-2-9-2"
       inkscape:connector-curvature="0"
       sodipodi:nodetypes="cccccscsccccccccc" />
    <path
       style="fill:none;fill-rule:evenodd;stroke:#000000;stroke-width:0.92710108px;stroke-linecap:butt;stroke-linejoin:miter;stroke-opacity:1"
       d="m 522.15475,172.98155 0.34489,3.61862 -0.38089,5.17701 0.15917,5.35999 -0.19987,4.56226 c 0,0 1.03394,2.08005 -9.16346,1.3221 -10.1974,-0.75794 -10.1465,-2.83799 -10.1465,-2.83799 0,0 1.08482,0 2.38662,-0.5053 1.3018,-0.50529 -2.38662,-1.51589 -2.38662,-1.51589 l 5.20717,-1.51588 0.44643,-5.2251 -0.44643,-4.88084 0,0 0,0 0,0 0,0 0,-3.41706"
       id="path3461-7-32-3-2-9-7"
       inkscape:connector-curvature="0"
       sodipodi:nodetypes="cccccscsccccccccc" />
    <path
       style="fill:none;fill-rule:evenodd;stroke:#000000;stroke-width:0.82973915px;stroke-linecap:butt;stroke-linejoin:miter;stroke-opacity:1"
       d="m 485.58431,172.76766 0.34672,2.88318 -0.38292,4.12486 0.16002,4.27064 -0.20093,3.63505 c 0,0 1.03943,1.65731 -9.21211,1.0534 -10.25154,-0.6039 -10.20036,-2.26121 -10.20036,-2.26121 0,0 1.09057,0 2.39929,-0.4026 1.30871,-0.4026 -2.39929,-1.20781 -2.39929,-1.20781 l 5.23481,-1.2078 0.4488,-4.16317 -0.4488,-3.88887 0,0 0,0 0,0 0,0 0.35714,-2.0083"
       id="path3461-7-32-3-2-9-2-2"
       inkscape:connector-curvature="0"
       sodipodi:nodetypes="cccccscsccccccccc" />
    <path
       style="fill:none;fill-rule:evenodd;stroke:#000000;stroke-width:0.92710108px;stroke-linecap:butt;stroke-linejoin:miter;stroke-opacity:1"
       d="m 314.65055,173.07853 0.16632,4.51148 -0.38089,5.17701 0.15917,5.35999 -0.19987,4.56226 c 0,0 1.03394,2.08005 -9.16346,1.3221 -10.1974,-0.75794 -10.1465,-2.83799 -10.1465,-2.83799 0,0 1.08482,0 2.38662,-0.5053 1.3018,-0.50529 -2.38662,-1.51589 -2.38662,-1.51589 l 5.20717,-1.51588 0.44643,-5.2251 -0.44643,-4.88084 0,0 0,0 0,0 0,0 0,-3.41706"
       id="path3461-7-32-3-2-9-26"
       inkscape:connector-curvature="0"
       sodipodi:nodetypes="cccccscsccccccccc" />
    <path
       style="fill:none;fill-rule:evenodd;stroke:#000000;stroke-width:0.82973915px;stroke-linecap:butt;stroke-linejoin:miter;stroke-opacity:1"
       d="m 273.90154,173.7575 0.34672,2.88318 -0.38292,4.12486 0.16002,4.27064 -0.20093,3.63505 c 0,0 1.03943,1.65731 -9.21211,1.0534 -10.25154,-0.6039 -10.20036,-2.26121 -10.20036,-2.26121 0,0 1.09057,0 2.39929,-0.4026 1.30871,-0.4026 -2.39929,-1.20781 -2.39929,-1.20781 l 5.23481,-1.2078 0.4488,-4.16317 -0.4488,-3.88887 0,0 0,0 0,0 0,0 0,-2.72259"
       id="path3461-7-32-3-2-9-2-1"
       inkscape:connector-curvature="0"
       sodipodi:nodetypes="cccccscsccccccccc" />
    <path
       style="fill:none;fill-rule:evenodd;stroke:#000000;stroke-width:0.81258947px;stroke-linecap:butt;stroke-linejoin:miter;stroke-opacity:1"
       d="m 71.06924,398.62942 c -0.77245,8.55987 2.54451,8.56242 4.74579,8.29502 5.35304,-0.65024 17.68126,-2.23374 20.73651,-1.54547 4.21409,0.94934 43.5824,1.32908 44.69136,0 1.10896,-1.32903 16.74448,-0.1282 17.18806,0.25155 l 0.72923,0.42706 1.4282,-0.0316"
       id="path3378-5-2-1-8-0"
       inkscape:connector-curvature="0"
       sodipodi:nodetypes="csssccc" />
    <path
       inkscape:connector-curvature="0"
       style="fill:none;fill-rule:evenodd;stroke:#000000;stroke-width:0.77073264px;stroke-linecap:butt;stroke-linejoin:miter;stroke-opacity:1"
       d="m 127.34736,319.66488 c -4.91337,-0.1543 -17.40904,-3.22226 -21.96266,-4.96193 -9.82591,-3.7539 -12.6583,0.5681 -15.36813,2.32595 -32.27201,20.93462 -67.39589,-11.16978 -72.69156,-4.74846 -5.17947,4.84062 -3.90883,4.66733 0.54784,7.07 13.49976,7.27793 59.73929,29.64682 57.14084,27.64308 -3.01027,-3.61375 -46.90695,17.54256 -64.90624,17.47893 -4.01752,-0.0142 -0.88884,11.43971 2.07,11.56986 11.81946,0.51987 14.07402,-0.8826 50.69665,-5.47792 6.43604,-0.80758 12.50862,-8.21403 7.84868,5.96791 -3.083,9.38268 -3.50658,4.5082 -3.083,9.38268 0.53604,6.16872 2.95464,10.52516 3.57984,12.10107 1.28202,3.2314 8.77989,-0.0274 14.77012,-1.45679 3.99341,-0.95297 4.48935,-0.48677 10.69806,-0.50647 1.32151,-0.004 0.2979,-1.11049 4.67731,-1.04158 10.17865,0.16011 27.24456,-1.37839 41.1664,1.3673 19.91178,3.92701 17.59626,-0.65323 17.59626,-0.65323 0,0 -3.07274,-74.84127 -5.38806,-80.07731 -1.44709,-3.2725 -16.06446,4.09362 -27.39235,4.01691 z"
       id="path3346-3-7-4-5-2-6"
       sodipodi:nodetypes="csscscssssssscsscsc" />
    <path
       style="fill:none;fill-rule:evenodd;stroke:#000000;stroke-width:1px;stroke-linecap:butt;stroke-linejoin:miter;stroke-opacity:1"
       d="m 155.29412,316.78442 c 2.36146,-1.45188 1.40475,0.26829 2.95154,-0.86813 l 2.5096,-0.0158"
       id="path3722-6-0-1"
       inkscape:connector-curvature="0"
       sodipodi:nodetypes="ccc" />
    <path
       style="fill:none;fill-rule:evenodd;stroke:#000000;stroke-width:1.25170636px;stroke-linecap:butt;stroke-linejoin:miter;stroke-opacity:1"
       d="m 93.49499,333.53013 c 0,0 7.21678,-10.30606 16.24389,-3.13334 9.02712,7.17274 9.77939,9.96214 9.77939,9.96214 0,0 1.42857,3.30357 -10.92301,1.42857 -2.68765,-0.40799 -5.13524,-0.63123 -7.14708,-1.35707 -6.08903,-2.19694 -8.50978,-5.65027 -8.50978,-5.65027 z"
       id="path3686-5"
       inkscape:connector-curvature="0"
       sodipodi:nodetypes="cscsscc" />
    <path
       style="fill:none;fill-rule:evenodd;stroke:#000000;stroke-width:0.81477773px;stroke-linecap:butt;stroke-linejoin:miter;stroke-opacity:1"
       d="m 105.77861,332.22738 c 0.92902,0.25427 4.62918,-2.43581 4.73894,-1.19667 0.19767,2.23166 3.54093,3.50598 3.54093,3.50598 -4.48149,-1.52776 -3.1934,0.24269 -6.71931,0.84927 -4.59152,1.35045 -6.8528,-0.28034 -9.37784,-0.83984 -1.49369,-0.33098 -2.16014,-2.85845 -2.16014,-2.85845 4.62373,-7.66037 5.94986,1.62814 9.97742,0.53971 z"
       id="path3686-7-9"
       inkscape:connector-curvature="0"
       sodipodi:nodetypes="csccscc" />
    <path
       style="opacity:1;fill:#000000;fill-opacity:1;stroke:#000000;stroke-width:0.08928572;stroke-opacity:1"
       d="m 102.07385,335.25244 c -0.70281,-0.14811 -3.12784,-0.86206 -4.14223,-1.21951 -0.47987,-0.16909 -0.92181,-0.67781 -1.33731,-1.53939 l -0.31884,-0.66112 0.16912,-0.31551 c 0.21528,-0.40162 1.42456,-1.30159 2.50199,-1.86203 l 0.81867,-0.42585 0.32277,0.15392 c 0.17753,0.0847 0.81442,0.62842 1.41531,1.20835 1.3086,1.26297 1.67243,1.55204 2.35718,1.87283 0.46376,0.21727 0.61925,0.24333 1.41392,0.23698 1.00875,-0.008 1.38839,-0.10984 2.71601,-0.72816 0.47048,-0.21911 1.05195,-0.47644 1.29216,-0.57184 l 0.43676,-0.17345 0.20526,0.19284 c 0.1129,0.10606 0.3104,0.40771 0.43888,0.67031 0.12848,0.26261 0.4063,0.66823 0.61738,0.90137 l 0.38378,0.4239 -0.58976,0.15246 c -0.32437,0.0839 -0.95507,0.35767 -1.40155,0.60847 -0.6562,0.36861 -1.04976,0.51436 -2.05356,0.7605 -0.68298,0.16748 -1.50295,0.34683 -1.82215,0.39855 -0.90023,0.14588 -2.52277,0.10625 -3.42379,-0.0836 z"
       id="path3734-4"
       inkscape:connector-curvature="0" />
    <path
       style="fill:none;fill-rule:evenodd;stroke:#000000;stroke-width:1.06211865px;stroke-linecap:butt;stroke-linejoin:miter;stroke-opacity:1"
       d="m 122.1609,318.94329 c 0,0 22.84288,13.70687 19.98751,22.97916 -2.85536,9.2723 -10.35067,21.36659 -16.41831,22.97917 -6.06764,1.61257 -33.01608,5.91663 -36.40582,9.67543 -4.10402,4.55085 -10.16765,8.21429 -10.16765,8.21429 l -10.71428,-0.17858"
       id="path4804-9"
       inkscape:connector-curvature="0"
       sodipodi:nodetypes="cssscc" />
    <path
       style="fill:none;fill-rule:evenodd;stroke:#000000;stroke-width:1px;stroke-linecap:butt;stroke-linejoin:miter;stroke-opacity:1"
       d="m 156.2773,333.55288 c -9.28572,1.42857 -3.21429,5.17857 -10.35715,1.60714 -7.14285,-3.57143 -8.57142,-4.28571 -8.57142,-4.28571"
       id="path4806-0"
       inkscape:connector-curvature="0" />
    <path
       style="fill:none;fill-rule:evenodd;stroke:#000000;stroke-width:1px;stroke-linecap:butt;stroke-linejoin:miter;stroke-opacity:1"
       d="m 157.88444,355.16002 c -22.32143,6.60714 -18.75,-0.71429 -23.03571,6.60714 -4.98204,8.511 -9.10714,7.50001 -9.10714,7.50001 0,0 -3.92858,-0.35715 -5.53572,-1.42858 -1.60714,-1.07143 -1.78572,-1.25 -1.78572,-1.25"
       id="path4808-9"
       inkscape:connector-curvature="0"
       sodipodi:nodetypes="cscsc" />
    <path
       style="fill:none;fill-rule:evenodd;stroke:#000000;stroke-width:1px;stroke-linecap:butt;stroke-linejoin:miter;stroke-opacity:1"
       d="m 158.7773,375.87431 c 0,0 -16.07143,6.96428 -23.75001,2.67857 -7.37492,-4.11623 -21.25,1.25 -24.28571,-2.67857 -3.0357,-3.92857 -18.92856,-2.67857 -18.92856,-2.67857"
       id="path4810-1"
       inkscape:connector-curvature="0"
       sodipodi:nodetypes="cssc" />
    <path
       style="fill:none;fill-rule:evenodd;stroke:#000000;stroke-width:1px;stroke-linecap:butt;stroke-linejoin:miter;stroke-opacity:1"
       d="m 159.84873,389.80288 c 0,0 -9.37654,2.82698 -19.70245,1.81856 -7.45912,-0.72846 -15.2715,-1.41321 -20.65469,-6.46141 -8.86992,-8.31795 -48.21428,11.60714 -48.21428,11.60714"
       id="path4812-7"
       inkscape:connector-curvature="0"
       sodipodi:nodetypes="cssc" />
    <path
       style="fill:none;fill-rule:evenodd;stroke:#000000;stroke-width:0.92710108px;stroke-linecap:butt;stroke-linejoin:miter;stroke-opacity:1"
       d="m 147.53499,404.98349 0.16632,4.51148 -0.38089,5.17702 0.15917,5.35999 -0.19987,4.56226 c 0,0 1.03394,2.08005 -9.16346,1.3221 -10.1974,-0.75794 -10.1465,-2.83799 -10.1465,-2.83799 0,0 1.08482,0 2.38662,-0.5053 1.3018,-0.50529 -2.38662,-1.51589 -2.38662,-1.51589 l 5.20717,-1.51588 0.44643,-5.2251 -0.44643,-4.88085 0,0 0,0 0,0 0,0 0,-3.41706"
       id="path3461-7-32-3-2-9-26-7"
       inkscape:connector-curvature="0"
       sodipodi:nodetypes="cccccscsccccccccc" />
    <path
       style="fill:none;fill-rule:evenodd;stroke:#000000;stroke-width:0.82973915px;stroke-linecap:butt;stroke-linejoin:miter;stroke-opacity:1"
       d="m 106.78599,405.66246 0.34672,2.88318 -0.38292,4.12487 0.16002,4.27064 -0.20093,3.63505 c 0,0 1.03943,1.65731 -9.21211,1.0534 -10.25154,-0.6039 -10.20036,-2.26121 -10.20036,-2.26121 0,0 1.09057,0 2.39929,-0.4026 1.30871,-0.4026 -2.39929,-1.20781 -2.39929,-1.20781 l 5.23481,-1.2078 0.4488,-4.16317 -0.4488,-3.88888 0,0 0,0 0,0 0,0 0,-2.72259"
       id="path3461-7-32-3-2-9-2-1-1"
       inkscape:connector-curvature="0"
       sodipodi:nodetypes="cccccscsccccccccc" />
    <path
       style="fill:none;fill-rule:evenodd;stroke:#000000;stroke-width:0.92710108px;stroke-linecap:butt;stroke-linejoin:miter;stroke-opacity:1"
       d="m 261.43026,313.96714 c -9.00732,-0.0502 -16.08373,0.15046 -16.08373,0.15046 0,0 -26.38791,7.14569 -38.66137,2.14351 -10.17008,-4.14494 -19.93548,-0.68063 -23.4116,1.2994 -0.71912,0.40962 -3.15307,-2.24516 -2.36264,2.63005 0,0 3.36686,12.12626 3.66982,25.65768 0.29706,13.2682 1.26832,28.82022 2.40794,39.62471 0.71037,6.73513 -0.76984,12.31873 0.0588,14.03933 1.699,3.5281 11.6355,-0.0298 19.574,-1.59054 5.29222,-1.04047 5.94946,-0.53146 14.17751,-0.55297 1.75133,-0.005 0.39479,-1.21245 6.19857,-1.13722 13.4892,0.17482 36.10565,-1.50495 54.55546,1.49284 26.38791,4.28759 23.31931,-0.7132 23.31931,-0.7132 0,0 -3.06812,-72.88978 -6.13648,-78.60656 -1.91773,-3.57298 -22.29333,-4.35374 -37.30551,-4.43749 z"
       id="path3346-3-7-3-5-2-5-1"
       inkscape:connector-curvature="0"
       sodipodi:nodetypes="ccsscsscscsscscc" />
    <path
       style="fill:none;fill-rule:evenodd;stroke:#000000;stroke-width:0.95290339px;stroke-linecap:butt;stroke-linejoin:miter;stroke-opacity:1"
       d="m 180.30484,408.08211 c 0,0 26.04954,-1.80469 32.26703,-0.91986 6.21748,0.88486 64.30185,1.23878 65.93804,0 3.27327,-0.12684 9.55609,-0.0675 15.38736,-0.0232 4.75938,0.0362 9.24961,-0.0954 11.52561,-0.18857"
       id="path3378-5-6-4-0-3-5"
       inkscape:connector-curvature="0"
       sodipodi:nodetypes="cscsc" />
    <path
       style="fill:none;fill-rule:evenodd;stroke:#000000;stroke-width:0.88624299px;stroke-linecap:butt;stroke-linejoin:miter;stroke-opacity:1"
       d="m 180.30109,397.72288 c 0,0 4.30805,0.28009 5.99879,1.70909 1.69073,1.42902 0.84536,0.47634 0.84536,0.47634"
       id="path3400-1-7-6-5-9"
       inkscape:connector-curvature="0"
       sodipodi:nodetypes="csc" />
    <path
       style="fill:none;fill-rule:evenodd;stroke:#000000;stroke-width:0.81021947px;stroke-linecap:butt;stroke-linejoin:miter;stroke-opacity:1"
       d="m 298.6991,319.75966 c 5.46418,-1.69328 5.96026,-0.95635 6.71501,-0.98432"
       id="path3402-3-0-4-8-6-7"
       inkscape:connector-curvature="0"
       sodipodi:nodetypes="cc" />
    <path
       style="fill:none;fill-rule:evenodd;stroke:#000000;stroke-width:0.92710108px;stroke-linecap:butt;stroke-linejoin:miter;stroke-opacity:1"
       d="m 273.10758,407.69769 0.34489,3.61862 -0.38089,5.17701 0.15917,5.35999 -0.19987,4.56226 c 0,0 1.03394,2.08005 -9.16346,1.3221 -10.1974,-0.75794 -10.1465,-2.83799 -10.1465,-2.83799 0,0 1.08482,0 2.38662,-0.5053 1.3018,-0.50529 -2.38662,-1.51589 -2.38662,-1.51589 l 5.20717,-1.51588 0.44643,-5.2251 -0.44643,-4.88084 0,0 0,0 0,0 0,0 0,-3.41706"
       id="path3461-7-32-3-2-9-76"
       inkscape:connector-curvature="0"
       sodipodi:nodetypes="cccccscsccccccccc" />
    <path
       style="fill:none;fill-rule:evenodd;stroke:#000000;stroke-width:0.9305234px;stroke-linecap:butt;stroke-linejoin:miter;stroke-opacity:1"
       d="m 183.86155,335.03395 c 55.30337,-7.45245 43.17161,-11.49445 55.30337,-7.45245 12.13177,4.04202 14.09908,9.8524 29.61899,5.55777 15.51991,-4.29464 31.6956,-4.29464 31.6956,-4.29464 l 0,0 0,0 0.21859,0 0,0"
       id="path4659-8-4-1-7"
       inkscape:connector-curvature="0" />
    <path
       style="fill:none;fill-rule:evenodd;stroke:#000000;stroke-width:0.93466866px;stroke-linecap:butt;stroke-linejoin:miter;stroke-opacity:1"
       d="m 184.98018,356.24533 c 55.80325,-7.45165 43.56184,-11.49322 55.80325,-7.45165 12.24144,4.04158 14.22653,9.85132 29.88672,5.55717 15.66022,-4.29417 31.98213,-4.29417 31.98213,-4.29417 l 0,0 0,0 0.22056,0 0,0"
       id="path4659-5-6-9-2-3"
       inkscape:connector-curvature="0" />
    <path
       style="fill:none;fill-rule:evenodd;stroke:#000000;stroke-width:0.93122274px;stroke-linecap:butt;stroke-linejoin:miter;stroke-opacity:1"
       d="m 303.43471,365.99884 c 0,0 -4.59895,12.37423 -34.82058,6.81846 -30.22163,-5.55579 -13.57782,-3.5355 -48.1794,-6.06086 -34.6016,-2.52535 -34.38261,7.07099 -34.38261,7.07099 l 0,0 0,0 0,0"
       id="path4676-8-5-7-6"
       inkscape:connector-curvature="0" />
    <path
       style="fill:none;fill-rule:evenodd;stroke:#000000;stroke-width:0.92999578px;stroke-linecap:butt;stroke-linejoin:miter;stroke-opacity:1"
       d="m 304.06414,380.98923 c 0,0 -4.58623,12.37589 -34.72426,6.81937 -30.13801,-5.55652 -13.54025,-3.53598 -48.04613,-6.06167 -34.50586,-2.52568 -34.28746,7.07195 -34.28746,7.07195 l 0,0 0,0 0,0"
       id="path4676-2-8-0-0-5"
       inkscape:connector-curvature="0" />
    <path
       style="fill:none;fill-rule:evenodd;stroke:#000000;stroke-width:0.82973915px;stroke-linecap:butt;stroke-linejoin:miter;stroke-opacity:1"
       d="m 232.53714,407.4838 0.34672,2.88318 -0.38292,4.12486 0.16002,4.27064 -0.20093,3.63505 c 0,0 1.03943,1.65731 -9.21211,1.0534 -10.25154,-0.6039 -10.20036,-2.26121 -10.20036,-2.26121 0,0 1.09057,0 2.39929,-0.4026 1.30871,-0.4026 -2.39929,-1.20781 -2.39929,-1.20781 l 5.23481,-1.2078 0.4488,-4.16317 -0.4488,-3.88887 0,0 0,0 0,0 0,0 0,-2.72259"
       id="path3461-7-32-3-2-9-2-6"
       inkscape:connector-curvature="0"
       sodipodi:nodetypes="cccccscsccccccccc" />
    <path
       style="fill:none;fill-rule:evenodd;stroke:#000000;stroke-width:0.92710108px;stroke-linecap:butt;stroke-linejoin:miter;stroke-opacity:1"
       d="m 401.43026,313.25286 c -9.00732,-0.0502 -16.08373,0.15046 -16.08373,0.15046 0,0 -26.38791,7.14569 -38.66137,2.14351 -10.17008,-4.14494 -19.93548,-0.68063 -23.4116,1.2994 -0.71912,0.40962 -3.15307,-2.24516 -2.36264,2.63005 0,0 3.36686,12.12626 3.66982,25.65768 0.29706,13.2682 1.26832,28.82022 2.40794,39.62471 0.71037,6.73513 -0.76984,12.31873 0.0588,14.03933 1.699,3.5281 11.6355,-0.0298 19.574,-1.59054 5.29222,-1.04047 5.94946,-0.53146 14.17751,-0.55297 1.75133,-0.005 0.39479,-1.21245 6.19857,-1.13722 13.4892,0.17482 36.10565,-1.50495 54.55546,1.49284 26.38791,4.28759 23.31931,-0.7132 23.31931,-0.7132 0,0 -3.06812,-72.88978 -6.13648,-78.60656 -1.91773,-3.57298 -22.29333,-4.35374 -37.30551,-4.43749 z"
       id="path3346-3-7-3-5-2-5-1-3"
       inkscape:connector-curvature="0"
       sodipodi:nodetypes="ccsscsscscsscscc" />
    <path
       style="fill:none;fill-rule:evenodd;stroke:#000000;stroke-width:0.95290339px;stroke-linecap:butt;stroke-linejoin:miter;stroke-opacity:1"
       d="m 320.30484,407.36783 c 0,0 26.04954,-1.80469 32.26703,-0.91986 6.21748,0.88486 64.30185,1.23878 65.93804,0 3.27327,-0.12684 9.55609,-0.0675 15.38736,-0.0232 4.75938,0.0362 9.24961,-0.0954 11.52561,-0.18857"
       id="path3378-5-6-4-0-3-5-9"
       inkscape:connector-curvature="0"
       sodipodi:nodetypes="cscsc" />
    <path
       style="fill:none;fill-rule:evenodd;stroke:#000000;stroke-width:0.88624299px;stroke-linecap:butt;stroke-linejoin:miter;stroke-opacity:1"
       d="m 320.30109,397.0086 c 0,0 4.30805,0.28009 5.99879,1.70909 1.69073,1.42902 0.84536,0.47634 0.84536,0.47634"
       id="path3400-1-7-6-5-9-4"
       inkscape:connector-curvature="0"
       sodipodi:nodetypes="csc" />
    <path
       style="fill:none;fill-rule:evenodd;stroke:#000000;stroke-width:0.81021947px;stroke-linecap:butt;stroke-linejoin:miter;stroke-opacity:1"
       d="m 438.6991,319.04538 c 5.46418,-1.69328 5.96026,-0.95635 6.71501,-0.98432"
       id="path3402-3-0-4-8-6-7-8"
       inkscape:connector-curvature="0"
       sodipodi:nodetypes="cc" />
    <path
       style="fill:none;fill-rule:evenodd;stroke:#000000;stroke-width:0.92710108px;stroke-linecap:butt;stroke-linejoin:miter;stroke-opacity:1"
       d="m 413.10758,406.98341 0.34489,3.61862 -0.38089,5.17701 0.15917,5.35999 -0.19987,4.56226 c 0,0 1.03394,2.08005 -9.16346,1.3221 -10.1974,-0.75794 -10.1465,-2.83799 -10.1465,-2.83799 0,0 1.08482,0 2.38662,-0.5053 1.3018,-0.50529 -2.38662,-1.51589 -2.38662,-1.51589 l 5.20717,-1.51588 0.44643,-5.2251 -0.44643,-4.88084 0,0 0,0 0,0 0,0 0,-3.41706"
       id="path3461-7-32-3-2-9-76-1"
       inkscape:connector-curvature="0"
       sodipodi:nodetypes="cccccscsccccccccc" />
    <path
       style="fill:none;fill-rule:evenodd;stroke:#000000;stroke-width:0.9305234px;stroke-linecap:butt;stroke-linejoin:miter;stroke-opacity:1"
       d="m 323.86155,334.31967 c 55.30337,-7.45245 43.17161,-11.49445 55.30337,-7.45245 12.13177,4.04202 14.09908,9.8524 29.61899,5.55777 15.51991,-4.29464 31.6956,-4.29464 31.6956,-4.29464 l 0,0 0,0 0.21859,0 0,0"
       id="path4659-8-4-1-7-2"
       inkscape:connector-curvature="0" />
    <path
       style="fill:none;fill-rule:evenodd;stroke:#000000;stroke-width:0.93466866px;stroke-linecap:butt;stroke-linejoin:miter;stroke-opacity:1"
       d="m 324.98018,355.53105 c 55.80325,-7.45165 43.56184,-11.49322 55.80325,-7.45165 12.24144,4.04158 14.22653,9.85132 29.88672,5.55717 15.66022,-4.29417 31.98213,-4.29417 31.98213,-4.29417 l 0,0 0,0 0.22056,0 0,0"
       id="path4659-5-6-9-2-3-9"
       inkscape:connector-curvature="0" />
    <path
       style="fill:none;fill-rule:evenodd;stroke:#000000;stroke-width:0.93122274px;stroke-linecap:butt;stroke-linejoin:miter;stroke-opacity:1"
       d="m 443.43471,365.28456 c 0,0 -4.59895,12.37423 -34.82058,6.81846 -30.22163,-5.55579 -13.57782,-3.5355 -48.1794,-6.06086 -34.6016,-2.52535 -34.38261,7.07099 -34.38261,7.07099 l 0,0 0,0 0,0"
       id="path4676-8-5-7-6-3"
       inkscape:connector-curvature="0" />
    <path
       style="fill:none;fill-rule:evenodd;stroke:#000000;stroke-width:0.92999578px;stroke-linecap:butt;stroke-linejoin:miter;stroke-opacity:1"
       d="m 444.06414,380.27495 c 0,0 -4.58623,12.37589 -34.72426,6.81937 -30.13801,-5.55652 -13.54025,-3.53598 -48.04613,-6.06167 -34.50586,-2.52568 -34.28746,7.07195 -34.28746,7.07195 l 0,0 0,0 0,0"
       id="path4676-2-8-0-0-5-9"
       inkscape:connector-curvature="0" />
    <path
       style="fill:none;fill-rule:evenodd;stroke:#000000;stroke-width:0.82973915px;stroke-linecap:butt;stroke-linejoin:miter;stroke-opacity:1"
       d="m 372.53714,406.76952 0.34672,2.88318 -0.38292,4.12486 0.16002,4.27064 -0.20093,3.63505 c 0,0 1.03943,1.65731 -9.21211,1.0534 -10.25154,-0.6039 -10.20036,-2.26121 -10.20036,-2.26121 0,0 1.09057,0 2.39929,-0.4026 1.30871,-0.4026 -2.39929,-1.20781 -2.39929,-1.20781 l 5.23481,-1.2078 0.4488,-4.16317 -0.4488,-3.88887 0,0 0,0 0,0 0,0 0,-2.72259"
       id="path3461-7-32-3-2-9-2-6-0"
       inkscape:connector-curvature="0"
       sodipodi:nodetypes="cccccscsccccccccc" />
    <path
       style="fill:none;fill-rule:evenodd;stroke:#000000;stroke-width:0.92710108px;stroke-linecap:butt;stroke-linejoin:miter;stroke-opacity:1"
       d="m 543.57312,312.53857 c -9.00732,-0.0502 -16.08373,0.15046 -16.08373,0.15046 0,0 -26.38791,7.14569 -38.66137,2.14351 -10.17008,-4.14494 -19.93548,-0.68063 -23.4116,1.2994 -0.71912,0.40962 -3.15307,-2.24516 -2.36264,2.63005 0,0 3.36686,12.12626 3.66982,25.65768 0.29706,13.2682 1.26832,28.82022 2.40794,39.62471 0.71037,6.73513 -0.76984,12.31873 0.0588,14.03933 1.699,3.5281 11.6355,-0.0298 19.574,-1.59054 5.29222,-1.04047 5.94946,-0.53146 14.17751,-0.55297 1.75133,-0.005 0.39479,-1.21245 6.19857,-1.13722 13.4892,0.17482 36.10565,-1.50495 54.55546,1.49284 26.38791,4.28759 23.31931,-0.7132 23.31931,-0.7132 0,0 -3.06812,-72.88978 -6.13648,-78.60656 -1.91773,-3.57298 -22.29333,-4.35374 -37.30551,-4.43749 z"
       id="path3346-3-7-3-5-2-5-1-8"
       inkscape:connector-curvature="0"
       sodipodi:nodetypes="ccsscsscscsscscc" />
    <path
       style="fill:none;fill-rule:evenodd;stroke:#000000;stroke-width:0.95290339px;stroke-linecap:butt;stroke-linejoin:miter;stroke-opacity:1"
       d="m 462.4477,406.65354 c 0,0 26.04954,-1.80469 32.26703,-0.91986 6.21748,0.88486 64.30185,1.23878 65.93804,0 3.27327,-0.12684 9.55609,-0.0675 15.38736,-0.0232 4.75938,0.0362 9.24961,-0.0954 11.52561,-0.18857"
       id="path3378-5-6-4-0-3-5-8"
       inkscape:connector-curvature="0"
       sodipodi:nodetypes="cscsc" />
    <path
       style="fill:none;fill-rule:evenodd;stroke:#000000;stroke-width:0.88624299px;stroke-linecap:butt;stroke-linejoin:miter;stroke-opacity:1"
       d="m 462.44395,396.29431 c 0,0 4.30805,0.28009 5.99879,1.70909 1.69073,1.42902 0.84536,0.47634 0.84536,0.47634"
       id="path3400-1-7-6-5-9-5"
       inkscape:connector-curvature="0"
       sodipodi:nodetypes="csc" />
    <path
       style="fill:none;fill-rule:evenodd;stroke:#000000;stroke-width:0.81021947px;stroke-linecap:butt;stroke-linejoin:miter;stroke-opacity:1"
       d="m 580.84196,318.33109 c 5.46418,-1.69328 5.96026,-0.95635 6.71501,-0.98432"
       id="path3402-3-0-4-8-6-7-0"
       inkscape:connector-curvature="0"
       sodipodi:nodetypes="cc" />
    <path
       style="fill:none;fill-rule:evenodd;stroke:#000000;stroke-width:0.92710108px;stroke-linecap:butt;stroke-linejoin:miter;stroke-opacity:1"
       d="m 555.25044,406.26912 0.34489,3.61862 -0.38089,5.17701 0.15917,5.35999 -0.19987,4.56226 c 0,0 1.03394,2.08005 -9.16346,1.3221 -10.1974,-0.75794 -10.1465,-2.83799 -10.1465,-2.83799 0,0 1.08482,0 2.38662,-0.5053 1.3018,-0.50529 -2.38662,-1.51589 -2.38662,-1.51589 l 5.20717,-1.51588 0.44643,-5.2251 -0.44643,-4.88084 0,0 0,0 0,0 0,0 0,-3.41706"
       id="path3461-7-32-3-2-9-76-9"
       inkscape:connector-curvature="0"
       sodipodi:nodetypes="cccccscsccccccccc" />
    <path
       style="fill:none;fill-rule:evenodd;stroke:#000000;stroke-width:0.9305234px;stroke-linecap:butt;stroke-linejoin:miter;stroke-opacity:1"
       d="m 466.00441,333.60538 c 55.30337,-7.45245 43.17161,-11.49445 55.30337,-7.45245 12.13177,4.04202 14.09908,9.8524 29.61899,5.55777 15.51991,-4.29464 31.6956,-4.29464 31.6956,-4.29464 l 0,0 0,0 0.21859,0 0,0"
       id="path4659-8-4-1-7-6"
       inkscape:connector-curvature="0" />
    <path
       style="fill:none;fill-rule:evenodd;stroke:#000000;stroke-width:0.93466866px;stroke-linecap:butt;stroke-linejoin:miter;stroke-opacity:1"
       d="m 467.12304,354.81676 c 55.80325,-7.45165 43.56184,-11.49322 55.80325,-7.45165 12.24144,4.04158 14.22653,9.85132 29.88672,5.55717 15.66022,-4.29417 31.98213,-4.29417 31.98213,-4.29417 l 0,0 0,0 0.22056,0 0,0"
       id="path4659-5-6-9-2-3-3"
       inkscape:connector-curvature="0" />
    <path
       style="fill:none;fill-rule:evenodd;stroke:#000000;stroke-width:0.93122274px;stroke-linecap:butt;stroke-linejoin:miter;stroke-opacity:1"
       d="m 585.57757,364.57027 c 0,0 -4.59895,12.37423 -34.82058,6.81846 -30.22163,-5.55579 -13.57782,-3.5355 -48.1794,-6.06086 -34.6016,-2.52535 -34.38261,7.07099 -34.38261,7.07099 l 0,0 0,0 0,0"
       id="path4676-8-5-7-6-8"
       inkscape:connector-curvature="0" />
    <path
       style="fill:none;fill-rule:evenodd;stroke:#000000;stroke-width:0.92999578px;stroke-linecap:butt;stroke-linejoin:miter;stroke-opacity:1"
       d="m 586.207,379.56066 c 0,0 -4.58623,12.37589 -34.72426,6.81937 -30.13801,-5.55652 -13.54025,-3.53598 -48.04613,-6.06167 -34.50586,-2.52568 -34.28746,7.07195 -34.28746,7.07195 l 0,0 0,0 0,0"
       id="path4676-2-8-0-0-5-5"
       inkscape:connector-curvature="0" />
    <path
       style="fill:none;fill-rule:evenodd;stroke:#000000;stroke-width:0.82973915px;stroke-linecap:butt;stroke-linejoin:miter;stroke-opacity:1"
       d="m 514.68,406.05523 0.34672,2.88318 -0.38292,4.12486 0.16002,4.27064 -0.20093,3.63505 c 0,0 1.03943,1.65731 -9.21211,1.0534 -10.25154,-0.6039 -10.20036,-2.26121 -10.20036,-2.26121 0,0 1.09057,0 2.39929,-0.4026 1.30871,-0.4026 -2.39929,-1.20781 -2.39929,-1.20781 l 5.23481,-1.2078 0.4488,-4.16317 -0.4488,-3.88887 0,0 0,0 0,0 0,0 0,-2.72259"
       id="path3461-7-32-3-2-9-2-6-6"
       inkscape:connector-curvature="0"
       sodipodi:nodetypes="cccccscsccccccccc" />
    <path
       style="fill:none;fill-rule:evenodd;stroke:#000000;stroke-width:0.81045389px;stroke-linecap:butt;stroke-linejoin:miter;stroke-opacity:1"
       d="m 601.90884,406.37857 c 0,0 17.47452,-0.071 21.66592,0.87849 2.05108,0.46464 12.98033,-1.73254 23.22082,-1.67427 10.68591,0.0608 20.66673,2.35304 21.22997,1.67427 1.07832,-1.2995 15.77701,-0.4268 16.93227,-0.27925 0.0977,0.0125 4.72391,-5.05897 0.93985,-8.42245"
       id="path3378-5-2-4-4-6-1"
       inkscape:connector-curvature="0"
       sodipodi:nodetypes="cssssc" />
    <path
       style="fill:none;fill-rule:evenodd;stroke:#000000;stroke-width:0.76214665px;stroke-linecap:butt;stroke-linejoin:miter;stroke-opacity:1"
       d="m 604.22312,316.12832 c -0.48488,0.41056 -2.21528,-0.91102 -1.68231,3.97539 0,0 2.27012,12.15413 2.4744,25.71665 0.20029,13.2987 0.85516,28.88648 1.62357,39.71581 0.47897,6.7506 -0.51908,12.34704 0.0397,14.0716 1.14556,3.53621 7.84532,-0.0299 13.19791,-1.59421 3.56831,-1.04285 4.01147,-0.53268 9.5593,-0.55424 1.18084,-0.005 0.26619,-1.21523 4.17943,-1.13982 9.09519,0.17521 24.3445,-1.50841 36.78444,1.49626 17.79225,4.29745 15.72322,-0.71483 15.72322,-0.71483 0,0 4.41884,-29.76844 2.65361,-48.50648 -0.67957,-7.21366 3.01507,-13.88567 3.10484,-15.57665 1.99612,-37.60013 -34.08755,-26.90027 -41.11047,-22.93988 -21.7987,8.46277 -33.78908,-5.21024 -46.54764,6.0504 z"
       id="path3346-3-7-5-9-6-1"
       inkscape:connector-curvature="0"
       sodipodi:nodetypes="ccsscscsscsscc" />
    <path
       style="fill:none;fill-rule:evenodd;stroke:#000000;stroke-width:1px;stroke-linecap:butt;stroke-linejoin:miter;stroke-opacity:1"
       d="m 680.17015,307.31072 c 0,0 -4.46428,-17.14285 7.14286,-19.64285 11.60714,-2.50001 13.39286,2.14285 15.71429,-6.42858 2.32142,-8.57143 2.32142,-8.57143 2.32142,-8.57143"
       id="path3739-3-3-5"
       inkscape:connector-curvature="0" />
    <path
       style="fill:none;fill-rule:evenodd;stroke:#000000;stroke-width:1px;stroke-linecap:butt;stroke-linejoin:miter;stroke-opacity:1"
       d="m 684.79733,310.34878 c 0,0 -4.99999,-15.26785 6.60715,-17.76784 11.60714,-2.50001 12.99771,1.81337 15.53571,-6.69644 l 3.03571,-10.17857"
       id="path3739-0-7-2-9"
       inkscape:connector-curvature="0"
       sodipodi:nodetypes="cssc" />
    <path
       style="fill:none;fill-rule:evenodd;stroke:#000000;stroke-width:1px;stroke-linecap:butt;stroke-linejoin:miter;stroke-opacity:1"
       d="m 710.08087,275.79287 -3.48214,2.5 -1.25,-5.44643 -6.16072,1.33929 4.64286,-3.57143 -3.83928,-5 6.16071,3.83929 6.25,-4.01786 -3.30357,5.26786 10.17857,-0.98215 -5.26786,2.94643 3.21429,6.16071 z"
       id="path3756-4-0-8"
       inkscape:connector-curvature="0" />
    <path
       style="fill:none;fill-rule:evenodd;stroke:#000000;stroke-width:1px;stroke-linecap:butt;stroke-linejoin:miter;stroke-opacity:1"
       d="m 606.64399,399.86988 c -2.33598,-3.283 -4.60882,-2.77792 -4.60882,-2.77792 l 0,0"
       id="path4776-4"
       inkscape:connector-curvature="0" />
    <path
       style="fill:none;fill-rule:evenodd;stroke:#000000;stroke-width:1px;stroke-linecap:butt;stroke-linejoin:miter;stroke-opacity:1"
       d="m 603.61353,327.7071 c 0,0 19.1929,-10.6066 31.8198,-3.78807 12.62691,6.81853 47.22464,8.5863 51.26525,2.52538 4.04061,-6.06091 4.04061,-6.06091 4.04061,-6.06091 l -0.25254,0.25254"
       id="path4796-8"
       inkscape:connector-curvature="0" />
    <path
       style="fill:none;fill-rule:evenodd;stroke:#000000;stroke-width:1px;stroke-linecap:butt;stroke-linejoin:miter;stroke-opacity:1"
       d="m 605.63383,349.42538 c 32.07235,-14.39467 3.03046,-17.67767 33.58758,-14.64721 30.55711,3.03046 19.19289,13.63706 34.34518,11.61676 15.15229,-2.02031 15.15229,-2.02031 15.15229,-2.02031 l 0,0 0,0 -0.25254,-0.25254 0,0 0,0.25254"
       id="path4798-1"
       inkscape:connector-curvature="0" />
    <path
       style="fill:none;fill-rule:evenodd;stroke:#000000;stroke-width:1px;stroke-linecap:butt;stroke-linejoin:miter;stroke-opacity:1"
       d="m 606.13891,364.32513 c 41.92133,9.09138 28.03173,18.94036 43.18402,8.5863 15.15229,-10.35406 34.59773,-14.89975 37.12311,-12.62691 2.52538,2.27285 2.27284,2.02031 2.27284,2.02031"
       id="path4800-0"
       inkscape:connector-curvature="0" />
    <path
       style="fill:none;fill-rule:evenodd;stroke:#000000;stroke-width:1px;stroke-linecap:butt;stroke-linejoin:miter;stroke-opacity:1"
       d="m 606.39145,377.70965 c 19.95051,-4.04061 20.96066,12.87945 20.96066,12.87945 0,0 30.80966,4.04061 45.70941,-5.55584 14.89975,-9.59645 15.15228,-9.84899 15.15228,-9.84899"
       id="path4802-3"
       inkscape:connector-curvature="0" />
    <path
       style="fill:none;fill-rule:evenodd;stroke:#000000;stroke-width:0.92710108px;stroke-linecap:butt;stroke-linejoin:miter;stroke-opacity:1"
       d="m 671.30371,406.17809 0.34489,3.61862 -0.38089,5.17701 0.15917,5.35999 -0.19987,4.56226 c 0,0 1.03394,2.08005 -9.16346,1.3221 -10.1974,-0.75794 -10.1465,-2.83799 -10.1465,-2.83799 0,0 1.08482,0 2.38662,-0.5053 1.3018,-0.50529 -2.38662,-1.51589 -2.38662,-1.51589 l 5.20717,-1.51588 0.44643,-5.2251 -0.44643,-4.88084 0,0 0,0 0,0 0,0 0,-3.41706"
       id="path3461-7-32-3-2-9-7-0"
       inkscape:connector-curvature="0"
       sodipodi:nodetypes="cccccscsccccccccc" />
    <path
       style="fill:none;fill-rule:evenodd;stroke:#000000;stroke-width:0.82973915px;stroke-linecap:butt;stroke-linejoin:miter;stroke-opacity:1"
       d="m 634.73327,405.9642 0.34672,2.88318 -0.38292,4.12486 0.16002,4.27064 -0.20093,3.63505 c 0,0 1.03943,1.65731 -9.21211,1.0534 -10.25154,-0.6039 -10.20036,-2.26121 -10.20036,-2.26121 0,0 1.09057,0 2.39929,-0.4026 1.30871,-0.4026 -2.39929,-1.20781 -2.39929,-1.20781 l 5.23481,-1.2078 0.4488,-4.16317 -0.4488,-3.88887 0,0 0,0 0,0 0,0 0.35714,-2.0083"
       id="path3461-7-32-3-2-9-2-2-4"
       inkscape:connector-curvature="0"
       sodipodi:nodetypes="cccccscsccccccccc" />
    <path
       style="opacity:1;fill:#859900;fill-opacity:1;stroke:#000000;stroke-width:0.35714287;stroke-opacity:1"
       d="m 335.62127,166.01758 c -0.57544,-0.43541 -0.6738,-0.94967 -0.63811,-3.33625 0.0831,-5.55719 0.47191,-8.67698 1.19616,-9.59772 0.37681,-0.47903 1.69052,-1.36593 2.91936,-1.97088 5.99278,-2.95024 15.94878,-3.48003 37.56002,-1.9987 17.18154,1.1777 17.41741,1.20665 30.89286,3.79228 16.85974,3.23499 22.85272,3.77092 30,2.68274 5.44155,-0.82847 8.94756,-2.2492 11.83711,-4.79672 l 1.65854,-1.46222 0.242,5.97914 c 0.1331,3.28853 0.27069,6.61102 0.30575,7.38332 0.0621,1.36869 0.0231,1.41678 -1.5434,1.90341 -2.31632,0.71954 -9.94945,0.33195 -18.92857,-0.96116 -13.44442,-1.93616 -14.60522,-1.99493 -37.82546,-1.91512 -18.04506,0.062 -21.87284,0.16242 -23.39286,0.6135 -1.22675,0.36404 -3.96467,0.58727 -8.42454,0.68685 -6.29453,0.14055 -6.89441,0.21807 -12.67857,1.6385 -6.88476,1.69069 -12.03953,2.22221 -13.18029,1.35903 z"
       id="path5255"
       inkscape:connector-curvature="0" />
    <path
       style="opacity:1;fill:#859900;fill-opacity:1;stroke:#000000;stroke-width:0.35714287;stroke-opacity:1"
       d="m 239.23002,166.25906 -0.67869,-0.7527 3.89297,-1.82338 c 19.24969,-9.01613 34.4874,-13.20467 40.95585,-11.25795 0.90237,0.27157 2.57524,1.22706 3.71747,2.1233 3.881,3.04518 8.00561,4.41127 16.40701,5.4341 7.21624,0.87854 17.70628,0.36378 22.30031,-1.09431 0.56256,-0.17855 0.64795,0.11032 0.76318,2.58176 0.0912,1.95637 -0.0104,2.9419 -0.34217,3.31852 -0.84331,0.9573 -8.15348,0.65777 -15.4737,-0.63403 -9.62669,-1.69883 -14.90108,-1.99197 -30.99166,-1.72246 -11.06302,0.1853 -14.26486,0.3431 -15.03418,0.74093 -0.70538,0.36476 -2.26043,0.49703 -5.58617,0.47515 -4.38672,-0.0289 -4.86669,0.0427 -9.96582,1.4851 -6.77673,1.917 -9.02235,2.17076 -9.9644,1.12597 z"
       id="path5257"
       inkscape:connector-curvature="0" />
    <path
       style="opacity:1;fill:#859900;fill-opacity:1;stroke:#000000;stroke-width:0.35714287;stroke-opacity:1"
       d="m 458.45596,166.84197 c -0.21398,-0.26616 -0.42276,-4.74036 -0.51703,-11.08029 -0.1567,-10.53765 -0.15143,-10.63522 0.58303,-10.78479 3.92666,-0.79963 8.486,-0.37877 11.45785,1.05762 3.52485,1.70369 6.41476,5.64804 7.31487,9.98388 l 0.39911,1.92247 1.85609,0.25829 c 3.40066,0.47322 12.49771,0.69918 18.64181,0.46303 9.29848,-0.35738 17.07029,-1.86282 22.42268,-4.34338 1.41753,-0.65695 6.0805,-3.46881 10.36216,-6.24857 l 7.78483,-5.05411 -0.20699,2.04685 c -0.11385,1.12577 -0.53494,5.02007 -0.93577,8.654 -0.40083,3.63393 -0.82091,7.6296 -0.93352,8.87928 -0.19844,2.20214 -0.2444,2.28877 -1.49192,2.81196 -1.76932,0.74203 -5.46869,0.41853 -13.02,-1.13857 -8.9062,-1.83647 -13.05542,-2.11272 -27.51858,-1.83218 -8.62128,0.16722 -12.69656,0.37371 -13.21429,0.66954 -0.41173,0.23526 -2.83788,0.52135 -5.39145,0.63575 -4.32076,0.19358 -4.98081,0.32378 -9.51427,1.87683 -4.88525,1.67356 -7.40889,2.05542 -8.07861,1.22239 z"
       id="path5259"
       inkscape:connector-curvature="0" />
    <path
       style="opacity:1;fill:#d33682;fill-opacity:1;stroke:#000000;stroke-width:0.35714287;stroke-opacity:1"
       d="m 422.51964,154.26666 c -2.0625,-0.2705 -8.08928,-1.32066 -13.39285,-2.33368 -5.30358,-1.01303 -10.90947,-2.06688 -12.45754,-2.34191 -1.54807,-0.27502 -9.90522,-1.00306 -18.57143,-1.61786 -12.75171,-0.90462 -17.05088,-1.08058 -22.54246,-0.92259 -10.5472,0.30342 -16.36629,1.67522 -19.73215,4.65168 l -0.80357,0.71061 -0.0147,-0.86583 c -0.008,-0.4762 -0.23231,-3.19618 -0.49826,-6.0444 -0.58199,-6.23264 -0.40286,-6.93466 2.18907,-8.57922 5.80885,-3.68566 16.24917,-4.36961 40.77139,-2.67095 15.58869,1.07983 16.01477,1.13269 28.86172,3.58078 14.5675,2.77596 17.03138,3.10284 23.51221,3.11936 8.93927,0.0228 14.83519,-1.5643 18.81041,-5.06342 l 1.6181,-1.42431 0.23055,4.00102 c 0.1268,2.20057 0.23128,5.17044 0.23217,6.59971 0.002,2.59736 7.2e-4,2.59949 -1.57615,4.17647 -1.92633,1.92633 -5.09362,3.57029 -8.7281,4.53027 -3.58202,0.94612 -12.57142,1.19423 -17.90841,0.49427 z"
       id="path5261"
       inkscape:connector-curvature="0" />
    <path
       style="opacity:1;fill:#d33682;fill-opacity:1;stroke:#000000;stroke-width:0.35714287;stroke-opacity:1"
       d="m 237.2206,162.02054 c -1.26412,-3.49262 -2.36111,-9.21164 -1.96951,-10.26786 0.0829,-0.22361 2.22266,-0.31701 5.72313,-0.24981 l 5.59072,0.10733 2.50184,-1.71447 c 1.37601,-0.94296 3.80064,-2.93553 5.38806,-4.42793 1.58743,-1.4924 3.23727,-2.89865 3.66632,-3.125 0.98864,-0.52156 10.84815,-0.5476 13.99519,-0.037 2.28129,0.37017 3.8481,1.0574 6.04631,2.65202 1.60157,1.1618 3.85087,1.37154 10.31421,0.96177 6.6608,-0.42229 9.77924,-0.10416 13.46584,1.37371 5.12803,2.05571 10.93236,1.74048 19.57453,-1.06307 l 4.17617,-1.35476 0.18424,1.83144 c 0.41841,4.15923 0.57031,10.53945 0.25555,10.73398 -0.18267,0.1129 -2.23562,0.53567 -4.56212,0.93949 -9.70381,1.68435 -24.03965,0.38343 -30.20543,-2.741 -1.00425,-0.5089 -2.82418,-1.69039 -4.04429,-2.62555 -3.73015,-2.85901 -7.80791,-3.16118 -16.51238,-1.22362 -7.00029,1.55822 -18.59197,5.79263 -27.89667,10.19057 -2.43581,1.15131 -4.54568,2.09329 -4.6886,2.09329 -0.14291,0 -0.59431,-0.92411 -1.00311,-2.05357 z"
       id="path5263"
       inkscape:connector-curvature="0" />
    <path
       style="opacity:1;fill:#d33682;fill-opacity:1;stroke:#000000;stroke-width:0.35714287;stroke-opacity:1"
       d="m 483.76964,157.23938 c -2.35714,-0.16751 -4.46386,-0.37195 -4.6816,-0.45431 -0.21774,-0.0824 -0.49666,-0.7662 -0.61981,-1.51964 -0.34043,-2.08257 -2.15653,-5.61079 -3.81323,-7.40809 -3.187,-3.45749 -6.66227,-4.65335 -12.87885,-4.43171 l -4.20046,0.14976 -0.20176,-3.23278 c -0.43708,-7.0033 -0.43124,-8.41136 0.0349,-8.41136 0.24653,0 2.97532,0.64474 6.06397,1.43275 10.10683,2.57856 17.01576,5.26753 23.6706,9.21266 2.45442,1.45502 4.11635,2.21174 4.85752,2.21174 1.39166,0 3.02913,-0.86618 8.73303,-4.61954 10.8756,-7.15651 25.83487,-12.88046 33.66246,-12.88046 2.1659,0 2.32369,0.0611 3.64127,1.41045 l 1.37727,1.41044 -0.25122,5.63123 c -0.13817,3.09717 -0.28336,5.64648 -0.32264,5.66512 -0.0393,0.0187 -3.75323,2.41495 -8.2532,5.3251 -4.49998,2.91015 -9.16069,5.74541 -10.35714,6.30059 -7.96371,3.69529 -21.57359,5.26604 -36.46109,4.20805 z"
       id="path5265"
       inkscape:connector-curvature="0" />
    <path
       style="opacity:1;fill:#b58900;fill-opacity:1;stroke:#000000;stroke-width:0.35714287;stroke-opacity:1"
       d="m 422.4149,139.39849 c -1.53082,-0.187 -7.47725,-1.23202 -13.21429,-2.32228 -5.73703,-1.09025 -11.71668,-2.20973 -13.28811,-2.48771 -3.80053,-0.67232 -32.63731,-2.65725 -38.60411,-2.65725 -10.64312,0 -18.32525,1.55318 -22.16398,4.48111 l -1.16191,0.88624 -0.19149,-1.16582 c -0.17859,-1.08733 -0.83637,-12.84704 -0.72931,-13.03854 0.0268,-0.0479 2.92913,-0.49557 6.44972,-0.99491 14.24164,-2.01994 26.29439,-4.27502 36.25391,-6.78313 2.71275,-0.68315 5.50102,-1.24209 6.19616,-1.24209 1.95258,0 7.70571,1.98579 13.4153,4.63053 7.79169,3.60918 8.36072,3.76601 13.57142,3.74031 3.9813,-0.0196 5.12115,-0.18263 10.53572,-1.50661 9.14717,-2.23667 16.25149,-3.30785 25.55924,-3.8538 l 4.13067,-0.24228 0.42829,6.74092 c 0.61291,9.64678 0.69856,8.92414 -1.28293,10.82445 -2.02135,1.93853 -4.81888,3.36202 -8.58282,4.36725 -3.20515,0.856 -12.63874,1.19563 -17.32148,0.62361 z"
       id="path5267"
       inkscape:connector-curvature="0" />
    <path
       style="opacity:1;fill:#b58900;fill-opacity:1;stroke:#000000;stroke-width:0.35714287;stroke-opacity:1"
       d="m 304.30536,146.77363 c -0.6875,-0.26588 -2.13393,-0.86151 -3.21429,-1.32361 -1.89166,-0.80913 -2.30762,-0.84059 -11.25,-0.85102 -5.10714,-0.006 -9.55704,-0.0461 -9.88867,-0.0893 -0.33163,-0.0432 -1.1352,-0.56684 -1.78571,-1.16375 -1.75449,-1.60991 -5.12979,-2.50125 -10.54016,-2.78344 l -4.57117,-0.23842 5.35714,-1.31284 c 2.94643,-0.72207 7.88231,-1.83402 10.96863,-2.47101 l 5.61149,-1.15816 2.24565,1.12475 c 2.83093,1.41788 6.25742,1.84372 8.22395,1.02205 1.98985,-0.83141 4.67616,-3.54272 6.73741,-6.80012 1.01093,-1.59757 2.08971,-3.10556 2.39729,-3.3511 0.34889,-0.27851 1.70899,-0.44697 3.61598,-0.44786 3.54945,-0.002 8.07759,-0.67849 12.87407,-1.92429 1.86378,-0.48409 3.45693,-0.81193 3.54032,-0.72854 0.0834,0.0834 0.37784,4.35448 0.65434,9.49129 0.41621,7.73259 0.42156,9.39211 0.0311,9.64449 -0.95289,0.61586 -8.05876,2.76312 -10.95752,3.31114 -3.61916,0.68421 -8.34868,0.70761 -10.04983,0.0497 l 10e-6,0 z"
       id="path5269"
       inkscape:connector-curvature="0" />
    <path
       style="opacity:1;fill:#b58900;fill-opacity:1;stroke:#000000;stroke-width:0.35714287;stroke-opacity:1"
       d="m 488.23393,141.68611 c -6.68469,-4.12885 -14.26322,-7.06089 -25.40541,-9.82906 l -6.02316,-1.4964 -0.002,-2.69684 c -8.9e-4,-1.48326 -0.10324,-4.4647 -0.22745,-6.62541 l -0.22582,-3.92857 4.11465,-2.04592 c 7.99963,-3.97762 12.45622,-7.70075 13.68427,-11.43211 0.34014,-1.03351 0.79564,-1.99719 1.01221,-2.14151 0.64095,-0.42709 3.52633,-0.31536 11.28662,0.43707 10.24707,0.99354 15.27183,1.94988 19.70096,3.7496 2.56904,1.04389 4.56778,2.42057 7.73728,5.32922 3.86084,3.54309 4.82388,3.65643 17.00179,2.00091 4.30809,-0.58566 7.8807,-1.01701 7.93915,-0.95856 0.28941,0.28941 0.71546,15.1039 0.44277,15.39585 -0.18975,0.20315 -0.67746,-0.007 -1.24171,-0.53571 -2.48776,-2.32994 -13.9953,0.0266 -25.60086,5.24253 -4.3923,1.97406 -8.15759,4.08682 -13.3008,7.46332 -6.8035,4.46645 -6.96562,4.49728 -10.89286,2.07159 z"
       id="path5271"
       inkscape:connector-curvature="0" />
    <path
       style="opacity:1;fill:#dc322f;fill-opacity:1;stroke:#000000;stroke-width:0.35714287;stroke-opacity:1"
       d="m 289.23364,136.00784 c -0.92338,-0.28409 -1.75935,-0.64675 -1.85771,-0.8059 -0.0984,-0.15916 0.89819,-0.49957 2.21458,-0.75648 3.99154,-0.779 5.99987,-1.70471 8.28177,-3.81735 3.9669,-3.67265 8.16694,-10.24812 10.72497,-16.79074 1.99111,-5.09258 1.88578,-8.02339 -0.40418,-11.24696 -0.37038,-0.5214 -0.67343,-1.03939 -0.67343,-1.1511 0,-0.11171 1.95054,0.75685 4.33452,1.93013 2.38399,1.17328 4.54809,2.13324 4.80912,2.13324 0.26102,0 0.96363,-0.47804 1.56134,-1.06232 0.92356,-0.90281 4.83987,-2.49303 5.16121,-2.09572 0.0544,0.0673 0.37336,4.60701 0.70877,10.08829 0.48442,7.91635 0.51844,10.02245 0.1654,10.24064 -0.63059,0.38973 -6.04155,1.72365 -9.41893,2.32197 -1.57143,0.27839 -4.38393,0.50876 -6.25,0.51192 -2.00688,0.003 -3.75586,0.18941 -4.28148,0.45535 -0.48874,0.24728 -1.51466,1.41009 -2.27982,2.58402 -4.08278,6.26394 -6.15639,8.0459 -9.31219,8.00241 -0.99279,-0.0137 -2.56057,-0.25732 -3.48394,-0.5414 z"
       id="path5273"
       inkscape:connector-curvature="0" />
    <path
       style="opacity:1;fill:#dc322f;fill-opacity:1;stroke:#000000;stroke-width:0.35714287;stroke-opacity:1"
       d="m 332.87658,118.80625 c -1.8e-4,-2.34519 -0.59235,-14.13246 -0.82006,-16.32339 -0.0642,-0.61765 0.299,-0.75098 3.14169,-1.1533 15.43022,-2.183812 26.59292,-4.203835 36.19912,-6.55066 3.99881,-0.97692 8.02318,-1.776217 8.94305,-1.776217 2.36132,0 7.3089,1.695625 14.13679,4.844936 9.45455,4.360841 12.22896,4.572381 23.3398,1.779573 8.51251,-2.139692 20.11113,-3.767366 26.84582,-3.767366 l 2.75736,0 0.20002,1.696428 c 0.11001,0.933036 0.48286,5.285076 0.82855,9.671186 0.54365,6.89773 0.55953,8.01843 0.11759,8.29811 -0.28102,0.17783 -1.59431,0.3258 -2.91841,0.32881 -6.23267,0.0142 -18.6731,1.82208 -27.05683,3.93208 -5.59689,1.40861 -9.48763,1.85776 -12.45148,1.43741 -2.96901,-0.42108 -3.99924,-0.79114 -10.22709,-3.67361 -6.49822,-3.00761 -11.54452,-4.67113 -14.10714,-4.65044 -1.08036,0.009 -4.53572,0.66618 -7.67857,1.46101 -6.82336,1.72563 -12.46785,2.89358 -20.89286,4.32312 -7.02378,1.19179 -18.57031,2.89018 -19.64885,2.89018 -0.64535,0 -0.70831,-0.24597 -0.7085,-2.76786 z"
       id="path5275"
       inkscape:connector-curvature="0" />
    <path
       style="opacity:1;fill:#dc322f;fill-opacity:1;stroke:#000000;stroke-width:0.35714287;stroke-opacity:1"
       d="m 456.3203,109.85363 c -0.23294,-5.51068 -0.80534,-12.729607 -1.1272,-14.215934 -0.13998,-0.646416 0.21591,-0.927863 2.4205,-1.914178 11.51547,-5.151924 21.42236,-5.923618 28.67322,-2.233492 11.64961,5.928738 40.79751,8.14624 49.69558,3.780717 0.918,-0.45039 1.96594,-1.545606 3.28984,-3.438259 1.24199,-1.775563 2.06646,-2.6536 2.28578,-2.43428 0.18869,0.188684 0.42346,2.578673 0.52173,5.311086 0.17335,4.820289 0.14595,5.067914 -0.92134,8.32714 -0.605,1.84751 -1.2807,4.06095 -1.50155,4.91875 -0.67945,2.63908 -0.80413,2.69147 -8.92293,3.74938 -8.51399,1.1094 -11.68767,1.19346 -13.32131,0.35285 -0.62864,-0.32348 -2.29023,-1.6576 -3.69243,-2.96473 -5.62522,-5.24381 -11.45476,-7.00947 -28.39139,-8.59922 -7.92076,-0.743478 -10.63161,-0.714669 -11.32461,0.12035 -0.19777,0.23829 -0.69434,1.32799 -1.10349,2.42155 -0.40915,1.09356 -1.31393,2.65422 -2.01061,3.46814 -1.57868,1.84433 -6.00339,4.79423 -10.72674,7.15138 l -3.60629,1.79969 -0.23676,-5.60094 z"
       id="path5277"
       inkscape:connector-curvature="0" />
    <path
       style="opacity:1;fill:#268bd2;fill-opacity:1;stroke:#000000;stroke-width:0.35714287;stroke-opacity:1"
       d="m 310.69154,101.36296 c -4.57862,-2.265642 -5.89159,-3.103121 -7.99006,-5.096468 -1.38112,-1.311923 -4.1769,-3.627619 -6.21284,-5.14599 l -3.70172,-2.760676 1.74136,-0.0021 c 3.09263,-0.0037 8.70093,-1.028237 16.93453,-3.093516 5.24357,-1.315275 8.37471,-1.937886 8.98076,-1.785777 0.81904,0.205567 0.97669,0.501084 1.31669,2.468178 0.60282,3.487724 1.57499,14.134049 1.34531,14.732599 -0.1135,0.29577 -0.57302,0.53934 -1.02115,0.54126 -1.04046,0.004 -4.23494,1.48569 -4.87636,2.2611 -0.26959,0.3259 -0.61333,0.59255 -0.76387,0.59255 -0.15053,0 -2.73923,-1.22002 -5.75265,-2.71115 z"
       id="path5279"
       inkscape:connector-curvature="0" />
    <path
       style="opacity:1;fill:#268bd2;fill-opacity:1;stroke:#000000;stroke-width:0.35714287;stroke-opacity:1"
       d="m 331.66346,99.699112 c -0.0855,-0.441965 -0.67458,-3.455358 -1.30901,-6.696429 -0.63442,-3.241071 -1.22785,-6.592273 -1.31872,-7.447114 -0.15491,-1.457176 -0.1174,-1.539076 0.60054,-1.311213 0.49539,0.157234 1.67549,-0.13528 3.34242,-0.828495 6.41204,-2.666532 13.17233,-2.884733 20.07667,-0.648012 5.02525,1.627973 7.52283,2.014519 13.0379,2.01785 6.67574,0.004 14.22971,-0.978734 23.39067,-3.043112 l 4.28571,-0.965765 16.25,0.190908 c 8.9375,0.104999 18.25893,0.3677 20.71429,0.583779 7.80248,0.686642 13.6895,1.909595 14.62636,3.038438 0.45893,0.55298 1.29635,4.405749 1.64332,7.560583 l 0.24016,2.183562 -4.05849,0.248671 c -9.58437,0.58725 -18.2413,1.896754 -26.55849,4.017409 -5.75694,1.467858 -10.75253,1.899058 -13.79719,1.190925 -1.0544,-0.245237 -4.64924,-1.693622 -7.98853,-3.218632 -6.69392,-3.057029 -12.2986,-4.998353 -14.43045,-4.998353 -0.76241,0 -3.29174,0.486066 -5.62073,1.080147 -10.28465,2.623419 -21.28501,4.737441 -35.2181,6.768134 -4.07668,0.594157 -7.4888,1.080287 -7.58249,1.080287 -0.0937,0 -0.24031,-0.3616 -0.32584,-0.803568 z"
       id="path5281"
       inkscape:connector-curvature="0" />
    <path
       style="opacity:1;fill:#268bd2;fill-opacity:1;stroke:#000000;stroke-width:0.35714287;stroke-opacity:1"
       d="m 512.1625,95.9891 c -11.27771,-1.037747 -17.74416,-2.563785 -26.78571,-6.321246 -3.55202,-1.476137 -7.92199,-2.179377 -11.38601,-1.832299 -5.34919,0.535965 -13.00211,2.675818 -17.16494,4.799535 -0.83505,0.426011 -1.60446,0.68838 -1.70979,0.583043 -0.3119,-0.311892 -1.15296,-5.9674 -1.16069,-7.804736 -0.005,-1.193405 0.13648,-1.696428 0.47721,-1.696428 0.2664,0 1.23569,-0.573682 2.15398,-1.274848 2.44111,-1.863927 5.12139,-2.97147 8.31883,-3.437502 2.41933,-0.352621 3.8472,-0.298796 9.95158,0.375139 10.85602,1.198525 10.7923,1.195228 14.98411,0.775345 4.68628,-0.469413 9.57318,-1.701583 13.37068,-3.371243 7.59668,-3.340065 16.86563,-4.626639 23.38376,-3.245776 6.50281,1.377614 11.34835,5.435076 13.74152,11.506599 l 0.70455,1.787459 -2.24354,3.353128 c -2.48563,3.714951 -3.2876,4.282723 -7.34983,5.203494 -2.28472,0.517871 -15.6579,0.934158 -19.28571,0.600336 z"
       id="path5283"
       inkscape:connector-curvature="0" />
    <path
       style="opacity:1;fill:#2aa198;fill-opacity:1;stroke:#000000;stroke-width:0.35714287;stroke-opacity:1"
       d="m 304.12679,146.27787 c -4.68724,-1.78828 -4.64922,-1.7832 -14.71667,-1.96669 l -9.71666,-0.17711 -1.24438,-0.94913 c -1.95899,-1.49419 -4.63825,-2.32739 -8.92703,-2.77612 l -3.96669,-0.41503 2.67857,-0.62367 c 6.11504,-1.42381 15.94149,-3.51029 16.53195,-3.51029 0.34906,0 1.41212,0.39397 2.36235,0.87549 2.45856,1.24584 5.88015,1.81758 7.78268,1.30045 2.05308,-0.55805 4.90045,-3.25009 7.58807,-7.17411 1.40254,-2.04776 2.4843,-3.26889 2.98516,-3.36973 0.43202,-0.087 2.41573,-0.2484 4.40822,-0.35872 3.29904,-0.18264 7.15929,-0.82289 12.17938,-2.02003 1.03044,-0.24573 1.97364,-0.34666 2.09601,-0.2243 0.22045,0.22046 0.56877,4.77149 1.03808,13.56335 l 0.24324,4.5567 -1.32091,0.55191 c -0.7265,0.30355 -3.35437,1.11527 -5.83971,1.80382 -5.84184,1.61845 -11.37753,1.97542 -14.16166,0.91321 z"
       id="path5285"
       inkscape:connector-curvature="0" />
    <path
       style="opacity:1;fill:#2aa198;fill-opacity:1;stroke:#000000;stroke-width:0.35714287;stroke-opacity:1"
       d="m 422.4543,139.05944 c -1.31272,-0.18369 -7.25915,-1.23499 -13.21428,-2.33622 -5.95514,-1.10123 -12.27395,-2.22054 -14.04181,-2.48734 -3.20596,-0.48385 -17.33415,-1.56751 -30.53571,-2.34214 -13.51705,-0.79315 -23.51824,0.47029 -28.67433,3.62239 -1.17152,0.71619 -1.75543,0.9068 -1.85415,0.60527 -0.17154,-0.52393 -0.8522,-12.53536 -0.71911,-12.68974 0.0506,-0.0587 3.68685,-0.65028 8.08052,-1.3146 14.68717,-2.22071 21.5365,-3.49727 32.69115,-6.09289 3.76503,-0.8761 7.32643,-1.59292 7.91422,-1.59292 0.5878,0 2.48946,0.46733 4.22592,1.0385 3.09633,1.01847 4.90071,1.75859 12.80007,5.25032 l 3.92857,1.73653 5.00087,0.12608 c 4.41168,0.11122 5.48466,0.0149 9.10714,-0.81781 11.46528,-2.63543 18.85174,-3.79357 27.53376,-4.31709 l 4.14178,-0.24975 0.22871,3.17018 c 0.12579,1.74361 0.33401,5.11767 0.46271,7.49793 l 0.234,4.32774 -1.53898,1.6696 c -1.8378,1.99378 -5.63867,3.93559 -9.16479,4.68215 -3.02761,0.64101 -13.40307,0.96204 -16.60626,0.51381 z"
       id="path5287"
       inkscape:connector-curvature="0" />
    <path
       style="opacity:1;fill:#2aa198;fill-opacity:1;stroke:#000000;stroke-width:0.35714287;stroke-opacity:1"
       d="m 487.1625,140.68255 c -6.90138,-3.89393 -13.98078,-6.53425 -24.75841,-9.23387 -2.71534,-0.68014 -4.98566,-1.29177 -5.04516,-1.35917 -0.0595,-0.0674 -0.22245,-2.96094 -0.36211,-6.43011 l -0.25391,-6.30756 3.69194,-1.89474 c 4.85225,-2.49022 9.44535,-5.58581 11.34365,-7.64522 0.84114,-0.91253 1.99646,-2.68934 2.56738,-3.94846 l 1.03802,-2.28931 1.90337,0 c 5.46769,0 19.4518,1.74521 24.43842,3.04989 4.47886,1.17184 6.51066,2.19969 10.00461,5.06113 6.69546,5.48339 5.99621,5.36268 20.24923,3.49555 3.5333,-0.46286 6.4913,-0.77443 6.57335,-0.69238 0.25724,0.25724 0.50584,14.44295 0.25311,14.44295 -0.13203,0 -0.63928,-0.26158 -1.12723,-0.5813 -1.32511,-0.86825 -7.49981,-0.49555 -12.07492,0.72882 -7.9588,2.1299 -17.77793,6.56628 -25.40563,11.4785 -5.26928,3.39341 -7.206,4.44582 -8.17819,4.44402 -0.41271,-7.7e-4 -2.59859,-1.0442 -4.85752,-2.31874 z"
       id="path5289"
       inkscape:connector-curvature="0" />
    <path
       style="opacity:1;fill:#6c71c4;fill-opacity:1;stroke:#000000;stroke-width:0.35714287;stroke-opacity:1"
       d="m 332.78724,164.39081 c -0.34389,-0.19387 -1.5798,-0.52062 -2.74646,-0.72612 l -2.12119,-0.37365 -0.18667,-1.8406 c -0.10267,-1.01234 -0.27809,-4.25133 -0.38982,-7.19776 -0.84295,-22.22875 -2.8839,-55.460538 -3.95667,-64.424586 -0.29123,-2.433523 -0.45681,-4.49729 -0.36796,-4.586147 0.0889,-0.08886 1.11372,-0.237819 2.27748,-0.331024 l 2.11591,-0.169464 1.12656,5.291326 c 2.12684,9.989515 2.59473,14.574455 3.2734,32.077045 0.37798,9.74796 1.16435,21.75306 1.78964,27.32142 0.37373,3.32817 0.39163,9.63851 0.0372,13.10245 -0.20169,1.97101 -0.29362,2.17154 -0.85137,1.85711 z"
       id="path5291"
       inkscape:connector-curvature="0" />
    <path
       style="opacity:1;fill:#6c71c4;fill-opacity:1;stroke:#000000;stroke-width:0.35714287;stroke-opacity:1"
       d="m 456.13397,164.30648 c -0.27104,-0.32775 -1.11479,-0.69536 -1.875,-0.81693 -1.27347,-0.20363 -1.38218,-0.31163 -1.38218,-1.37301 0,-3.26052 -1.56772,-31.80749 -2.52067,-45.89957 -0.83075,-12.28487 -1.56634,-20.411791 -2.33951,-25.847317 -0.36271,-2.549967 -0.43153,-4.003833 -0.20045,-4.23491 0.19353,-0.193534 1.37306,-0.433851 2.62117,-0.534037 l 2.2693,-0.182157 0.80886,6.02421 c 1.29911,9.675411 1.47813,12.128931 1.84671,25.309921 0.37614,13.45137 0.44431,15.07534 1.2819,30.53572 0.61181,11.29287 0.40695,18.127 -0.51013,17.01808 z"
       id="path5293"
       inkscape:connector-curvature="0" />
    <path
       style="opacity:1;fill:#6c71c4;fill-opacity:1;stroke:#000000;stroke-width:0.35714287;stroke-opacity:1"
       d="m 239.8647,173.74308 c -0.70264,-0.77642 -1.25241,-2.80534 -1.26511,-4.66897 l -0.009,-1.25 2.76786,-0.0202 c 2.13685,-0.0156 3.98916,-0.36687 8.125,-1.54069 5.08402,-1.44294 5.59006,-1.51922 9.92571,-1.49621 3.29227,0.0175 4.84308,-0.1177 5.55118,-0.48387 0.77227,-0.39936 3.92239,-0.5619 14.71714,-0.7594 15.64135,-0.28617 21.07027,0.007 30.52025,1.64815 10.1869,1.76913 16.359,1.77201 17.30303,0.008 0.3109,-0.5809 0.566,-0.61654 2.23809,-0.31263 1.03796,0.18866 2.92361,0.92261 4.19033,1.631 2.03426,1.13762 2.57631,1.28288 4.64299,1.24426 1.28692,-0.024 4.26842,-0.46822 6.62556,-0.98706 12.02242,-2.64626 12.21102,-2.67369 18.41072,-2.67763 4.24808,-0.003 6.03628,-0.12932 6.35713,-0.45018 0.33334,-0.33335 4.1733,-0.51605 15.16071,-0.7213 22.77206,-0.42541 32.05567,-0.0269 45.42859,1.95007 6.00332,0.88749 8.74723,1.11606 13.75,1.14535 5.90127,0.0345 6.32694,-0.009 7.62908,-0.77841 1.71461,-1.0133 2.25752,-0.85426 4.73122,1.38593 1.72145,1.55895 2.1117,1.75051 3.56626,1.75051 1.00629,0 3.50697,-0.63793 6.51408,-1.66176 4.59836,-1.56559 5.14833,-1.6711 9.50441,-1.82338 2.98203,-0.10424 4.88406,-0.3299 5.35714,-0.63557 0.55194,-0.35661 3.73944,-0.53516 12.87638,-0.72127 14.15677,-0.28837 18.57178,0.005 27.47533,1.82559 7.02607,1.43669 11.20582,1.84313 13.21523,1.28506 1.01587,-0.28213 1.53504,-0.28212 1.875,3e-5 0.76975,0.63883 0.55449,3.08679 -0.43064,4.89725 l -0.9008,1.65547 -5.08134,-0.26705 c -5.35289,-0.28132 -10.73596,-0.0641 -11.74088,0.47366 -0.37663,0.20157 -2.75754,0.0317 -6.43347,-0.45892 -7.70021,-1.02779 -21.86345,-1.12139 -29.407,-0.19434 -6.45622,0.79342 -7.10035,0.80661 -14.10715,0.28888 -4.23518,-0.31294 -11.66959,-0.36981 -26.42857,-0.20218 -32.0094,0.36355 -72.2365,0.38816 -85,0.052 -9.31005,-0.24522 -13.50193,-0.1917 -21.18146,0.27044 -6.16397,0.37093 -9.7997,0.45554 -10.20703,0.23754 -0.82879,-0.44355 -8.22745,-1.08451 -12.5726,-1.08919 -2.20418,-0.002 -4.05043,0.20229 -5.17857,0.57406 -2.49482,0.82215 -26.50487,1.10973 -37.28891,0.44663 -9.68791,-0.59569 -14.07869,-0.51646 -21.77714,0.39295 -7.70661,0.91037 -8.65577,0.91413 -9.44923,0.0374 z"
       id="path5295"
       inkscape:connector-curvature="0" />
    <path
       style="opacity:1;fill:#6c71c4;fill-opacity:1;stroke:#000000;stroke-width:0.50507629;stroke-opacity:1"
       d="m 532.33015,74.183142 c -1.37736,-1.007153 -1.72844,-9.244563 -0.54575,-12.80529 1.62171,-4.882503 4.7033,-6.441865 13.84256,-7.004677 7.09929,-0.437186 7.45675,-0.740677 9.44265,-8.017087 1.08491,-3.975146 1.10467,-4.004344 1.45308,-2.147159 0.34662,1.847618 0.95162,2.37848 1.57013,1.377711 0.4485,-0.725687 1.27076,-0.623859 1.01962,0.126269 -0.11626,0.34724 -0.8153,2.654739 -1.55344,5.127776 -1.73342,5.807675 -2.74353,6.867786 -6.54381,6.867786 -4.16083,0 -9.8253,0.986014 -11.98843,2.086829 -1.04141,0.529971 -2.51876,1.907599 -3.283,3.061395 -1.235,1.86452 -1.40883,2.649764 -1.56312,7.06109 -0.0955,2.729803 -0.33615,4.963279 -0.53481,4.963279 -0.19867,0 -0.79072,-0.314065 -1.31568,-0.697922 z"
       id="path5297"
       inkscape:connector-curvature="0" />
    <path
       style="opacity:1;fill:#dc322f;fill-opacity:1;stroke:#000000;stroke-width:0.50507629;stroke-opacity:1"
       d="m 557.66873,42.682451 c -0.1318,-0.486136 -0.37873,-1.508915 -0.54874,-2.272843 -0.23166,-1.040948 -0.61116,-1.38896 -1.51465,-1.38896 -1.10366,0 -1.15621,-0.105934 -0.62173,-1.253387 0.40019,-0.859135 0.86197,-1.166138 1.46806,-0.976007 0.48633,0.15256 1.56593,-0.20803 2.39911,-0.80131 1.62765,-1.158985 1.93797,-0.854135 0.74121,0.728127 -1.07624,1.422909 -0.91951,1.799824 0.64741,1.557013 0.76392,-0.118378 2.52538,-0.332698 3.91434,-0.476265 2.47306,-0.255622 2.49657,-0.245317 1.13481,0.497372 l -1.39056,0.758402 1.04699,2.052278 c 0.57585,1.128752 0.91464,2.184629 0.75288,2.346392 -0.16177,0.161764 -1.09447,-0.08755 -2.07268,-0.554021 -2.19894,-1.048604 -3.45247,-1.07518 -4.26967,-0.09052 -0.82967,0.999694 -1.39296,0.957528 -1.68678,-0.126269 z"
       id="path5299"
       inkscape:connector-curvature="0" />
    <path
       style="opacity:1;fill:#dc322f;fill-opacity:1;stroke:#000000;stroke-width:0.12626907;stroke-opacity:1"
       d="m 554.259,35.942923 c -0.43181,-0.563861 -0.75713,-1.053183 -0.72294,-1.087382 0.0342,-0.0342 0.63937,0.297072 1.34482,0.736156 1.20238,0.74838 1.2613,0.804042 0.94153,0.889561 -0.18762,0.05018 -0.43948,0.180247 -0.55971,0.289048 -0.20264,0.183393 -0.27584,0.123053 -1.0037,-0.827383 z"
       id="path5301"
       inkscape:connector-curvature="0" />
    <path
       style="opacity:1;fill:#dc322f;fill-opacity:1;stroke:#000000;stroke-width:0.12626907;stroke-opacity:1"
       d="m 552.54742,39.764228 c 0.29092,-0.256684 1.68531,-1.283123 1.74308,-1.283123 0.0352,0 0.0821,0.126425 0.10429,0.280945 0.0222,0.15452 0.17519,0.347913 0.33999,0.429764 0.27906,0.138594 0.24869,0.158967 -0.44194,0.296509 -0.40787,0.08123 -0.94046,0.200035 -1.18352,0.264012 -0.55873,0.14706 -0.71894,0.150451 -0.5619,0.01189 z"
       id="path5303"
       inkscape:connector-curvature="0" />
    <path
       style="opacity:1;fill:#dc322f;fill-opacity:1;stroke:#000000;stroke-width:0.12626907;stroke-opacity:1"
       d="m 565.92563,44.109903 c -0.55708,-0.256191 -0.59431,-0.29613 -0.31649,-0.33949 0.23362,-0.03646 0.3331,-0.146887 0.38555,-0.427948 l 0.0707,-0.378808 0.3405,0.658715 c 0.48425,0.9368 0.48812,0.932873 -0.48024,0.487531 z"
       id="path5305"
       inkscape:connector-curvature="0" />
    <path
       style="opacity:1;fill:#859900;fill-opacity:1;stroke:#000000;stroke-width:0.35714287;stroke-opacity:1"
       d="m 262.46817,188.99811 c -4.10103,-0.46274 -6.17042,-0.9375 -5.56446,-1.27661 0.42491,-0.23779 0.55967,-0.60803 0.42157,-1.15826 -0.1792,-0.71399 -0.0258,-0.84603 1.30924,-1.12697 1.48765,-0.31306 1.51608,-0.34723 1.7492,-2.10313 0.13033,-0.98169 0.14479,-3.53822 0.0321,-5.68116 l -0.20484,-3.89627 2.46787,0.24409 c 1.35732,0.13426 4.35645,0.34516 6.66473,0.46867 l 4.19686,0.22458 -0.13307,6.92333 c -0.0732,3.80783 -0.24703,7.03775 -0.38631,7.1776 -0.27419,0.27531 -8.51015,0.43463 -10.55292,0.20413 z"
       id="path5307"
       inkscape:connector-curvature="0" />
    <path
       style="opacity:1;fill:#859900;fill-opacity:1;stroke:#000000;stroke-width:0.35714287;stroke-opacity:1"
       d="m 303.71817,193.27829 c -2.08306,-0.24734 -5.29003,-0.8974 -6.21049,-1.25888 l -0.93236,-0.36615 0.80357,-0.30886 c 0.80754,-0.31038 1.1579,-1.76044 0.42535,-1.76044 -0.88139,0 0.13038,-0.65701 1.57,-1.01951 l 1.56106,-0.39308 0.20207,-2.67193 c 0.11115,-1.46957 0.11184,-4.50415 0.002,-6.74352 l -0.20051,-4.07159 3.53625,-0.17028 c 1.94493,-0.0937 3.88571,-0.35731 4.31283,-0.5859 0.42713,-0.22859 1.7327,-0.41562 2.90128,-0.41562 1.80856,0 2.15186,0.10396 2.3074,0.69874 0.1005,0.3843 0.0949,4.73681 -0.0124,9.67224 l -0.1951,8.97349 -0.86208,0.32777 c -0.813,0.3091 -6.87437,0.37066 -9.20844,0.0935 z"
       id="path5309"
       inkscape:connector-curvature="0" />
    <path
       style="opacity:1;fill:#859900;fill-opacity:1;stroke:#000000;stroke-width:0.35714287;stroke-opacity:1"
       d="m 369.07532,189.00059 c -3.11717,-0.30795 -6.25,-0.9268 -6.25,-1.23461 0,-0.17869 0.16071,-0.32488 0.35714,-0.32488 0.5237,0 0.43688,-1.42245 -0.0893,-1.46286 -0.24553,-0.0188 0.35715,-0.22052 1.33929,-0.44815 l 1.78571,-0.41388 0.23927,-1.78398 c 0.13159,-0.98119 0.14646,-3.45667 0.033,-5.50106 l -0.20623,-3.71708 0.85982,0.23006 c 0.4729,0.12653 3.47101,0.23225 6.66246,0.23493 l 5.80265,0.005 -0.11266,6.95882 c -0.062,3.82735 -0.23561,7.08181 -0.3859,7.23214 -0.29319,0.29327 -7.67153,0.45919 -10.0353,0.22567 z"
       id="path5311"
       inkscape:connector-curvature="0" />
    <path
       style="opacity:1;fill:#859900;fill-opacity:1;stroke:#000000;stroke-width:0.35714287;stroke-opacity:1"
       d="m 408.90422,193.11061 c -3.27763,-0.37947 -7.02133,-1.4517 -5.78921,-1.65808 0.9918,-0.16613 1.39349,-1.02172 0.87184,-1.85701 -0.32813,-0.52543 -0.14836,-0.66741 1.32218,-1.0443 l 1.70196,-0.4362 0.20265,-2.67954 c 0.11146,-1.47374 0.11119,-4.41323 -6.1e-4,-6.53219 l -0.20323,-3.85266 1.16669,-0.23333 c 0.64168,-0.12834 3.53677,-0.23334 6.43354,-0.23334 l 5.26685,0 0.17343,1.33928 c 0.0954,0.73661 0.0757,4.87375 -0.0436,9.19365 l -0.21707,7.85437 -1.07143,0.22838 c -1.51453,0.32283 -6.65975,0.27615 -9.81395,-0.089 z"
       id="path5313"
       inkscape:connector-curvature="0" />
    <path
       style="opacity:1;fill:#859900;fill-opacity:1;stroke:#000000;stroke-width:0.35714287;stroke-opacity:1"
       d="m 473.3435,187.93025 c -0.49107,-0.0703 -2.01786,-0.3137 -3.39286,-0.54083 -2.24521,-0.37088 -2.3999,-0.44692 -1.51786,-0.74612 0.93682,-0.31778 1.39807,-1.34506 0.60393,-1.34506 -0.92992,0 0.14418,-0.64268 1.41327,-0.84561 l 1.40802,-0.22515 0.23493,-2.23248 c 0.12922,-1.22786 0.1822,-3.40602 0.11775,-4.84035 l -0.11718,-2.60788 3.92857,-0.10751 c 2.16071,-0.0591 5.07101,-0.23244 6.46732,-0.38514 3.08746,-0.33763 2.88755,-0.89944 2.63982,7.41878 -0.14302,4.80235 -0.28522,6.06332 -0.71428,6.33382 -0.4983,0.31414 -9.07239,0.40981 -11.07143,0.12353 z"
       id="path5315"
       inkscape:connector-curvature="0" />
    <path
       style="opacity:1;fill:#859900;fill-opacity:1;stroke:#000000;stroke-width:0.35714287;stroke-opacity:1"
       d="m 509.5935,192.04342 c -1.17857,-0.17024 -2.86607,-0.53804 -3.75,-0.81733 -1.37654,-0.43495 -1.49539,-0.543 -0.82828,-0.75302 1.00951,-0.31783 1.29132,-1.08934 0.63693,-1.74373 -0.45276,-0.45276 -0.29953,-0.59075 1.21437,-1.09359 l 1.73251,-0.57545 0.21058,-2.51179 c 0.11582,-1.38149 0.11541,-4.40456 -9e-4,-6.71794 l -0.21149,-4.20614 3.71243,0.50147 c 2.16314,0.2922 4.85609,0.41536 6.45292,0.29512 2.42858,-0.18287 2.75588,-0.13453 2.87565,0.42472 0.0743,0.34709 0.0704,4.24715 -0.009,8.66679 -0.12183,6.8046 -0.23088,8.10411 -0.71176,8.48214 -0.65802,0.51728 -7.86572,0.54831 -11.32423,0.0487 z"
       id="path5317"
       inkscape:connector-curvature="0" />
    <path
       style="opacity:1;fill:#cb4b16;fill-opacity:1;stroke:#000000;stroke-width:0.35714287;stroke-opacity:1"
       d="m 237.05234,148.3161 c 1.50755,-3.73082 2.52344,-7.27662 2.70994,-9.45861 0.31793,-3.71955 -0.47728,-4.02272 -5.49574,-2.09523 -2.00594,0.77044 -4.4005,1.36762 -6.55369,1.6344 -1.86607,0.23121 -10.38393,1.36784 -18.92857,2.52584 -17.24602,2.33725 -21.92958,2.83929 -26.49186,2.83973 l -3.099,3e-4 -1.06069,-1.28681 c -1.7414,-2.11262 -2.76754,-6.99586 -1.83589,-8.73667 0.28507,-0.53265 0.75524,-0.69114 2.05357,-0.69224 6.47995,-0.006 17.84299,-3.21532 44.12244,-12.46354 12.39555,-4.36222 16.54653,-5.50779 18.75661,-5.17637 1.21597,0.18234 1.53896,0.12947 1.4184,-0.23219 -0.18349,-0.55048 -0.27317,-0.59805 -4.22073,-2.23883 -4.73776,-1.96922 -19.01077,-8.83281 -36.96428,-17.775346 -16.53435,-8.235655 -19.82143,-10.011041 -19.82143,-10.705754 0,-0.207826 0.82688,-1.252174 1.83752,-2.320773 1.68146,-1.77789 1.97058,-1.942906 3.40412,-1.942906 1.94913,0 4.07754,0.71279 12.33495,4.130883 15.31694,6.340337 23.39048,8.369117 33.30497,8.369117 5.84029,0 9.96579,-0.612865 14.61845,-2.17165 3.83972,-1.286424 8.69949,-3.747974 11.32287,-5.735209 4.52483,-3.427605 6.98271,-3.63787 14.5088,-1.241194 2.70508,0.861429 7.16832,2.076382 9.91832,2.699896 2.75,0.623514 5.80357,1.527978 6.78571,2.009919 5.08077,2.493154 15.73211,11.935517 17.78317,15.764697 1.62642,3.03641 1.64217,4.74631 0.0802,8.70161 -3.41177,8.63938 -9.12747,16.72129 -13.34864,18.87478 -0.90003,0.45916 -5.42825,1.58139 -11.05529,2.73984 -11.99768,2.46999 -18.93272,4.1612 -22.79635,5.55923 -2.64307,0.95637 -3.4045,1.44619 -6.03151,3.87997 -1.65361,1.53198 -4.16669,3.60277 -5.58463,4.60176 l -2.57807,1.81635 -4.92565,0 -4.92565,0 0.75764,-1.875 z m 49.36523,-37.88392 c 2.00659,-1.31477 0.81163,-3.67618 -4.27873,-8.45537 -3.5962,-3.376367 -6.66027,-5.568618 -8.75613,-6.26475 -2.22982,-0.740627 -5.20812,-0.559473 -7.50485,0.456479 -2.03172,0.898728 -5.84509,4.429351 -6.35074,5.879861 -0.37468,1.07481 -0.31469,1.19961 1.34647,2.80075 2.02984,1.95651 6.67749,4.39516 9.48865,4.97875 7.10668,1.47534 14.31203,1.74653 16.05533,0.60428 z"
       id="path5321"
       inkscape:connector-curvature="0" />
  </g>
</svg>
