<?xml version="1.0" encoding="UTF-8" standalone="no"?>
<!-- Created with Inkscape (http://www.inkscape.org/) -->

<svg
   xmlns:dc="http://purl.org/dc/elements/1.1/"
   xmlns:cc="http://creativecommons.org/ns#"
   xmlns:rdf="http://www.w3.org/1999/02/22-rdf-syntax-ns#"
   xmlns:svg="http://www.w3.org/2000/svg"
   xmlns="http://www.w3.org/2000/svg"
   xmlns:sodipodi="http://sodipodi.sourceforge.net/DTD/sodipodi-0.dtd"
   xmlns:inkscape="http://www.inkscape.org/namespaces/inkscape"
   width="210mm"
   height="297mm"
   viewBox="0 0 744.09448819 1052.3622047"
   id="svg2"
   version="1.1"
   inkscape:version="0.91 r13725"
   sodipodi:docname="bernunca-corpo.svg">
  <defs
     id="defs4" />
  <sodipodi:namedview
     id="base"
     pagecolor="#ffffff"
     bordercolor="#666666"
     borderopacity="1.0"
     inkscape:pageopacity="0.0"
     inkscape:pageshadow="2"
     inkscape:zoom="0.7"
     inkscape:cx="339.7035"
     inkscape:cy="573.13914"
     inkscape:document-units="px"
     inkscape:current-layer="layer1"
     showgrid="false"
     showguides="false"
     inkscape:window-width="1364"
     inkscape:window-height="734"
     inkscape:window-x="0"
     inkscape:window-y="16"
     inkscape:window-maximized="0" />
  <metadata
     id="metadata7">
    <rdf:RDF>
      <cc:Work
         rdf:about="">
        <dc:format>image/svg+xml</dc:format>
        <dc:type
           rdf:resource="http://purl.org/dc/dcmitype/StillImage" />
        <dc:title></dc:title>
      </cc:Work>
    </rdf:RDF>
  </metadata>
  <g
     inkscape:label="Layer 1"
     inkscape:groupmode="layer"
     id="layer1">
    <path
       style="fill:none;fill-rule:evenodd;stroke:#000000;stroke-width:1px;stroke-linecap:butt;stroke-linejoin:miter;stroke-opacity:1"
       d="m 364.1529,128.90234 c -10.4841,-0.0502 -18.72071,0.15039 -18.72071,0.15039 0,0 -30.71428,7.14258 -45,2.14258 -11.8375,-4.14313 -23.20396,-0.68033 -27.25,1.29883 -0.83703,0.40944 -3.67003,-2.24418 -2.75,2.62891 0,0 3.91886,12.12096 4.27149,25.64648 0.34577,13.26241 1.47627,28.80765 2.80273,39.60742 0.82684,6.73219 -0.89606,12.31336 0.0684,14.03321 1.97755,3.52656 13.54317,-0.0298 22.78321,-1.58985 6.15989,-1.04001 6.92489,-0.53123 16.50195,-0.55273 2.03846,-0.005 0.45952,-1.21192 7.21484,-1.13672 15.70079,0.17474 42.02528,-1.50429 63.5,1.49219 30.71429,4.28572 27.14258,-0.71289 27.14258,-0.71289 0,0 -3.57115,-72.85798 -7.14258,-78.57227 -2.23214,-3.57142 -25.94838,-4.35184 -43.42187,-4.43555 z"
       id="path3346-3-7"
       inkscape:connector-curvature="0"
       sodipodi:nodetypes="ccsscsscscsscscc" />
    <path
       style="fill:none;fill-rule:evenodd;stroke:#000000;stroke-width:1.0258491px;stroke-linecap:butt;stroke-linejoin:miter;stroke-opacity:1"
       d="m 269.67781,223.96458 c 0,0 30.1362,-2.83284 37.33857,-1.94758 7.20236,0.88528 74.48762,1.23936 76.38298,0 1.89535,-1.23936 29.5676,-0.7082 30.32575,-0.35409 l 0.75812,0.35409 0,0 -0.18952,-0.35409 0.18952,0.17705"
       id="path3378-5"
       inkscape:connector-curvature="0"
       sodipodi:nodetypes="cssscccc" />
    <path
       style="fill:none;fill-rule:evenodd;stroke:#000000;stroke-width:1.00702882px;stroke-linecap:butt;stroke-linejoin:miter;stroke-opacity:1"
       d="m 269.71026,214.00124 c 0,0 5.69704,-0.62332 7.92137,0.77915 2.22434,1.40247 1.11217,0.46749 1.11217,0.46749"
       id="path3400"
       inkscape:connector-curvature="0"
       sodipodi:nodetypes="csc" />
    <path
       style="fill:none;fill-rule:evenodd;stroke:#000000;stroke-width:1px;stroke-linecap:butt;stroke-linejoin:miter;stroke-opacity:1"
       d="m 407.62089,133.03154 c 8.5863,-1.6415 7.67085,-2.27285 8.5863,-1.6415 0.91545,0.63134 1.38896,-0.63135 1.38896,-0.63135"
       id="path3402-3"
       inkscape:connector-curvature="0"
       sodipodi:nodetypes="csc" />
    <path
       style="fill:none;fill-rule:evenodd;stroke:#000000;stroke-width:1px;stroke-linecap:butt;stroke-linejoin:miter;stroke-opacity:1"
       d="m 294.96699,237.84837 c 0,0 -6.91353,-1.24903 -6.24701,-1.29351 0.6386,-0.0426 3.14959,-0.8171 3.89101,-1.06424 1.51522,-0.50508 -3.33596,-1.60452 -3.33596,-1.60452 l 6.06091,-1.51522 0,-10.10153 0,0 0,0 0,0 0,0 0,0"
       id="path3461"
       inkscape:connector-curvature="0"
       sodipodi:nodetypes="csscccccccc" />
    <path
       style="fill:none;fill-rule:evenodd;stroke:#000000;stroke-width:1px;stroke-linecap:butt;stroke-linejoin:miter;stroke-opacity:1"
       d="m 316.50807,222.55296 -0.0893,18.70971 c 0,0 1.51523,2.52538 -10.35406,1.76776 -11.86929,-0.75761 -12.12183,-3.28299 -12.12183,-3.28299 0,0 1.26269,0 2.77792,-0.50508 1.51523,-0.50507 -2.77792,-1.51523 -2.77792,-1.51523 l 6.06091,-1.51522 0,-10.10153 0,0 0,0 0,0 0,0 0,-4.30804"
       id="path3461-7"
       inkscape:connector-curvature="0"
       sodipodi:nodetypes="ccscscccccccc" />
    <path
       style="fill:none;fill-rule:evenodd;stroke:#000000;stroke-width:1px;stroke-linecap:butt;stroke-linejoin:miter;stroke-opacity:1"
       d="m 363.14264,241.48738 c 0,0 -6.91353,-1.24903 -6.24701,-1.29351 0.6386,-0.0426 3.14959,-0.8171 3.89101,-1.06424 1.51522,-0.50508 -3.33596,-1.60452 -3.33596,-1.60452 l 6.06091,-1.51522 0,-10.10153 0,0 0,0 0,0 0,0 0.0631,-3.21986"
       id="path3461-0"
       inkscape:connector-curvature="0"
       sodipodi:nodetypes="csscccccccc" />
    <path
       style="fill:none;fill-rule:evenodd;stroke:#000000;stroke-width:1px;stroke-linecap:butt;stroke-linejoin:miter;stroke-opacity:1"
       d="m 384.74685,221.77255 -0.0893,18.70971 c 0,0 1.4521,6.9448 -10.41719,6.18718 -11.86929,-0.75761 -12.12183,-3.28299 -12.12183,-3.28299 0,0 1.26269,0 2.77792,-0.50508 1.51523,-0.50507 -2.77792,-1.51523 -2.77792,-1.51523 l 6.06091,-1.51522 0,-10.10153 0,0 0,0 0,0 0,0 0,-7.08596"
       id="path3461-7-9"
       inkscape:connector-curvature="0"
       sodipodi:nodetypes="ccscscccccccc" />
    <path
       style="fill:none;fill-rule:evenodd;stroke:#000000;stroke-width:0.81045389px;stroke-linecap:butt;stroke-linejoin:miter;stroke-opacity:1"
       d="m 180.61943,216.60935 c -0.76828,8.56102 2.53081,8.56357 4.72024,8.29614 5.32422,-0.65034 17.58607,-2.23405 20.62488,-1.54568 4.19139,0.94946 43.34779,1.32925 44.45079,0 1.10299,-1.32924 16.65433,-0.12821 17.09553,0.25158 l 0.7253,0.42712 1.42053,-0.0316"
       id="path3378-5-2"
       inkscape:connector-curvature="0"
       sodipodi:nodetypes="csssccc" />
    <path
       style="fill:none;fill-rule:evenodd;stroke:#000000;stroke-width:1px;stroke-linecap:butt;stroke-linejoin:miter;stroke-opacity:1"
       d="m 209.44465,239.23357 c 0,0 -6.91353,-1.24903 -6.24701,-1.29351 0.6386,-0.0426 3.14959,-0.8171 3.89101,-1.06424 1.51522,-0.50508 -3.33596,-1.60452 -3.33596,-1.60452 l 6.06091,-1.51522 0,-10.10153 0,0 0,0 0,0 0,0 0,0"
       id="path3461-9"
       inkscape:connector-curvature="0"
       sodipodi:nodetypes="csscccccccc" />
    <path
       style="fill:none;fill-rule:evenodd;stroke:#000000;stroke-width:1px;stroke-linecap:butt;stroke-linejoin:miter;stroke-opacity:1"
       d="m 230.98573,223.93816 -0.0893,18.70971 c 0,0 1.51523,2.52538 -10.35406,1.76776 -11.86929,-0.75761 -12.12183,-3.28299 -12.12183,-3.28299 0,0 1.26269,0 2.77792,-0.50508 1.51523,-0.50507 -2.77792,-1.51523 -2.77792,-1.51523 l 6.06091,-1.51522 0,-10.10153 0,0 0,0 0,0 0,0 0,-4.30804"
       id="path3461-7-3"
       inkscape:connector-curvature="0"
       sodipodi:nodetypes="ccscscccccccc" />
    <path
       style="fill:none;fill-rule:evenodd;stroke:#000000;stroke-width:0.81045389px;stroke-linecap:butt;stroke-linejoin:miter;stroke-opacity:1"
       d="m 417.4077,222.07594 c 0,0 17.53765,-3.03829 21.72905,-2.08883 4.19138,0.94949 43.34779,1.32925 44.45079,0 1.07832,-1.2995 15.77701,-0.4268 16.93227,-0.27925 0.0977,0.0125 4.72391,-5.05897 0.93985,-8.42245"
       id="path3378-5-2-4"
       inkscape:connector-curvature="0"
       sodipodi:nodetypes="csssc" />
    <path
       style="fill:none;fill-rule:evenodd;stroke:#000000;stroke-width:1px;stroke-linecap:butt;stroke-linejoin:miter;stroke-opacity:1"
       d="m 442.61685,235.86087 c 0,0 -6.91353,-1.24903 -6.24701,-1.29351 0.6386,-0.0426 3.14959,-0.8171 3.89101,-1.06424 1.51522,-0.50508 -3.33596,-1.60452 -3.33596,-1.60452 l 6.06091,-1.51522 0,-10.10153 0,0 0,0 0,0 0,0 0,0"
       id="path3461-9-7"
       inkscape:connector-curvature="0"
       sodipodi:nodetypes="csscccccccc" />
    <path
       style="fill:none;fill-rule:evenodd;stroke:#000000;stroke-width:1px;stroke-linecap:butt;stroke-linejoin:miter;stroke-opacity:1"
       d="m 464.15793,220.56546 -0.0893,18.70971 c 0,0 1.51523,2.52538 -10.35406,1.76776 -11.86929,-0.75761 -12.12183,-3.28299 -12.12183,-3.28299 0,0 1.26269,0 2.77792,-0.50508 1.51523,-0.50507 -2.77792,-1.51523 -2.77792,-1.51523 l 6.06091,-1.51522 0,-10.10153 0,0 0,0 0,0 0,0 0,-4.30804"
       id="path3461-7-3-8"
       inkscape:connector-curvature="0"
       sodipodi:nodetypes="ccscscccccccc" />
    <path
       inkscape:connector-curvature="0"
       style="fill:none;fill-rule:evenodd;stroke:#000000;stroke-width:0.80596828px;stroke-linecap:butt;stroke-linejoin:miter;stroke-opacity:1"
       d="m 236.50438,130.33225 c -4.91223,-0.16877 -14.83018,-9.10699 -19.68521,-9.57054 -2.50169,-0.23886 -14.73071,5.14688 -17.63686,6.68737 -24.43758,12.95387 -67.38012,-12.21725 -72.67455,-5.19376 -5.17826,5.29456 -3.90792,5.10502 0.54771,7.733 13.4966,7.96043 50.63604,34.08432 48.0382,31.89268 -3.00957,-3.95264 -37.8067,17.53032 -55.80178,17.46072 -4.01658,-0.0155 -2.56607,12.31342 -1.71767,15.41704 1.21254,4.43572 19.1203,-9.80442 55.73437,-14.83067 6.43454,-0.88331 1.30613,-3.41819 6.07948,12.05196 2.19167,7.10309 0.53392,4.65474 0.9574,9.98634 0.53592,6.74721 -0.58077,12.34084 0.0443,14.06453 1.28173,3.53443 8.77785,-0.0299 14.76667,-1.5934 3.99246,-1.04233 4.48829,-0.53242 10.69555,-0.55397 1.3212,-0.005 0.29783,-1.21462 4.67621,-1.13925 10.17629,0.17513 27.2382,-1.50765 41.15679,1.49552 19.90711,4.29528 17.59215,-0.71448 17.59215,-0.71448 0,0 -2.3146,-73.02059 -4.62938,-78.74764 -1.44674,-3.57939 -16.81814,-4.36155 -28.14338,-4.44545 z"
       id="path3346-3-7-4"
       sodipodi:nodetypes="csscscssssssscsscsc" />
    <path
       style="fill:none;fill-rule:evenodd;stroke:#000000;stroke-width:1px;stroke-linecap:butt;stroke-linejoin:miter;stroke-opacity:1"
       d="m 264.30532,134.0704 c 2.36146,-1.45188 1.40475,0.26829 2.95154,-0.86813 l 2.5096,-0.0158"
       id="path3722"
       inkscape:connector-curvature="0"
       sodipodi:nodetypes="ccc" />
    <path
       style="fill:none;fill-rule:evenodd;stroke:#000000;stroke-width:0.76214665px;stroke-linecap:butt;stroke-linejoin:miter;stroke-opacity:1"
       d="m 419.78511,128.85837 c -0.48488,0.41056 -2.21528,-0.91102 -1.68231,3.97539 0,0 2.27012,12.15413 2.4744,25.71665 0.20029,13.2987 0.85516,28.88648 1.62357,39.71581 0.47897,6.7506 -0.51908,12.34704 0.0397,14.0716 1.14556,3.53621 7.84532,-0.0299 13.19791,-1.59421 3.56831,-1.04285 4.01147,-0.53268 9.5593,-0.55424 1.18084,-0.005 0.26619,-1.21523 4.17943,-1.13982 9.09519,0.17521 24.3445,-1.50841 36.78444,1.49626 17.79225,4.29745 15.72322,-0.71483 15.72322,-0.71483 0,0 4.41884,-29.76844 2.65361,-48.50648 -0.67957,-7.21366 3.01507,-13.88567 3.10484,-15.57665 1.99612,-37.60013 -34.08755,-26.90027 -41.11047,-22.93988 -21.7987,8.46277 -33.78908,-5.21024 -46.54764,6.0504 z"
       id="path3346-3-7-5"
       inkscape:connector-curvature="0"
       sodipodi:nodetypes="ccsscscsscsscc" />
    <path
       style="fill:none;fill-rule:evenodd;stroke:#000000;stroke-width:1px;stroke-linecap:butt;stroke-linejoin:miter;stroke-opacity:1"
       d="m 495.58928,120.04077 c 0,0 -4.46428,-17.14285 7.14286,-19.64285 11.60714,-2.500003 13.39286,2.14285 15.71429,-6.428574 2.32142,-8.571429 2.32142,-8.571429 2.32142,-8.571429"
       id="path3739"
       inkscape:connector-curvature="0" />
    <path
       style="fill:none;fill-rule:evenodd;stroke:#000000;stroke-width:1px;stroke-linecap:butt;stroke-linejoin:miter;stroke-opacity:1"
       d="m 500.21646,123.07883 c 0,0 -4.99999,-15.26785 6.60715,-17.76784 11.60714,-2.50001 12.99771,1.81337 15.53571,-6.696434 l 3.03571,-10.178572"
       id="path3739-0"
       inkscape:connector-curvature="0"
       sodipodi:nodetypes="cssc" />
    <path
       style="fill:none;fill-rule:evenodd;stroke:#000000;stroke-width:1px;stroke-linecap:butt;stroke-linejoin:miter;stroke-opacity:1"
       d="m 525.41071,88.344345 -3.48214,2.5 -1.25,-5.446429 -6.16072,1.339286 4.64286,-3.571428 -3.83928,-5 6.16071,3.839285 6.25,-4.017857 -3.30357,5.267857 10.17857,-0.982143 -5.26786,2.946429 3.21429,6.160714 z"
       id="path3756"
       inkscape:connector-curvature="0" />
    <path
       style="fill:none;fill-rule:evenodd;stroke:#000000;stroke-width:1px;stroke-linecap:butt;stroke-linejoin:miter;stroke-opacity:1"
       d="m 390.67872,361.72521 c -10.4841,-0.0502 -18.72071,0.15039 -18.72071,0.15039 0,0 -30.71428,7.14258 -45,2.14258 -11.8375,-4.14313 -23.20396,-0.68033 -27.25,1.29883 -0.83703,0.40944 -3.67003,-2.24418 -2.75,2.62891 0,0 3.91886,12.12096 4.27149,25.64648 0.34577,13.26241 1.47627,28.80765 2.80273,39.60742 0.82684,6.73219 -0.89606,12.31336 0.0684,14.03321 1.97755,3.52656 13.54317,-0.0298 22.78321,-1.58985 6.15989,-1.04001 6.92489,-0.53123 16.50195,-0.55273 2.03846,-0.005 0.45952,-1.21192 7.21484,-1.13672 15.70079,0.17474 42.02528,-1.50429 63.5,1.49219 30.71429,4.28572 27.14258,-0.71289 27.14258,-0.71289 0,0 -3.57115,-72.85798 -7.14258,-78.57227 -2.23214,-3.57142 -25.94838,-4.35184 -43.42187,-4.43555 z"
       id="path3346-3-7-3"
       inkscape:connector-curvature="0"
       sodipodi:nodetypes="ccsscsscscsscscc" />
    <path
       style="fill:none;fill-rule:evenodd;stroke:#000000;stroke-width:1.0258491px;stroke-linecap:butt;stroke-linejoin:miter;stroke-opacity:1"
       d="m 296.20363,456.78745 c 0,0 30.1362,-2.83284 37.33857,-1.94758 7.20236,0.88528 74.48762,1.23936 76.38298,0 1.89535,-1.23936 29.5676,-0.7082 30.32575,-0.35409 l 0.75812,0.35409 0,0 -0.18952,-0.35409 0.18952,0.17705"
       id="path3378-5-6"
       inkscape:connector-curvature="0"
       sodipodi:nodetypes="cssscccc" />
    <path
       style="fill:none;fill-rule:evenodd;stroke:#000000;stroke-width:1.00702882px;stroke-linecap:butt;stroke-linejoin:miter;stroke-opacity:1"
       d="m 296.23608,446.82411 c 0,0 5.69704,-0.62332 7.92137,0.77915 2.22434,1.40247 1.11217,0.46749 1.11217,0.46749"
       id="path3400-1"
       inkscape:connector-curvature="0"
       sodipodi:nodetypes="csc" />
    <path
       style="fill:none;fill-rule:evenodd;stroke:#000000;stroke-width:1px;stroke-linecap:butt;stroke-linejoin:miter;stroke-opacity:1"
       d="m 434.14671,365.85441 c 8.5863,-1.6415 7.67085,-2.27285 8.5863,-1.6415 0.91545,0.63134 1.38896,-0.63135 1.38896,-0.63135"
       id="path3402-3-0"
       inkscape:connector-curvature="0"
       sodipodi:nodetypes="csc" />
    <path
       style="fill:none;fill-rule:evenodd;stroke:#000000;stroke-width:1px;stroke-linecap:butt;stroke-linejoin:miter;stroke-opacity:1"
       d="m 321.49281,470.67124 c 0,0 -6.91353,-1.24903 -6.24701,-1.29351 0.6386,-0.0426 3.14959,-0.8171 3.89101,-1.06424 1.51522,-0.50508 -3.33596,-1.60452 -3.33596,-1.60452 l 6.06091,-1.51522 0,-10.10153 0,0 0,0 0,0 0,0 0,0"
       id="path3461-6"
       inkscape:connector-curvature="0"
       sodipodi:nodetypes="csscccccccc" />
    <path
       style="fill:none;fill-rule:evenodd;stroke:#000000;stroke-width:1px;stroke-linecap:butt;stroke-linejoin:miter;stroke-opacity:1"
       d="m 343.03389,455.37583 -0.0893,18.70971 c 0,0 1.51523,2.52538 -10.35406,1.76776 -11.86929,-0.75761 -12.12183,-3.28299 -12.12183,-3.28299 0,0 1.26269,0 2.77792,-0.50508 1.51523,-0.50507 -2.77792,-1.51523 -2.77792,-1.51523 l 6.06091,-1.51522 0,-10.10153 0,0 0,0 0,0 0,0 0,-4.30804"
       id="path3461-7-32"
       inkscape:connector-curvature="0"
       sodipodi:nodetypes="ccscscccccccc" />
    <path
       style="fill:none;fill-rule:evenodd;stroke:#000000;stroke-width:1px;stroke-linecap:butt;stroke-linejoin:miter;stroke-opacity:1"
       d="m 389.66846,474.31025 c 0,0 -6.91353,-1.24903 -6.24701,-1.29351 0.6386,-0.0426 3.14959,-0.8171 3.89101,-1.06424 1.51522,-0.50508 -3.33596,-1.60452 -3.33596,-1.60452 l 6.06091,-1.51522 0,-10.10153 0,0 0,0 0,0 0,0 0.0631,-3.21986"
       id="path3461-0-0"
       inkscape:connector-curvature="0"
       sodipodi:nodetypes="csscccccccc" />
    <path
       style="fill:none;fill-rule:evenodd;stroke:#000000;stroke-width:1px;stroke-linecap:butt;stroke-linejoin:miter;stroke-opacity:1"
       d="m 411.27267,454.59542 -0.0893,18.70971 c 0,0 1.4521,6.9448 -10.41719,6.18718 -11.86929,-0.75761 -12.12183,-3.28299 -12.12183,-3.28299 0,0 1.26269,0 2.77792,-0.50508 1.51523,-0.50507 -2.77792,-1.51523 -2.77792,-1.51523 l 6.06091,-1.51522 0,-10.10153 0,0 0,0 0,0 0,0 0,-7.08596"
       id="path3461-7-9-6"
       inkscape:connector-curvature="0"
       sodipodi:nodetypes="ccscscccccccc" />
    <path
       style="fill:none;fill-rule:evenodd;stroke:#000000;stroke-width:0.81045389px;stroke-linecap:butt;stroke-linejoin:miter;stroke-opacity:1"
       d="m 207.14525,449.43222 c -0.76828,8.56102 2.53081,8.56357 4.72024,8.29614 5.32422,-0.65034 17.58607,-2.23405 20.62488,-1.54568 4.19139,0.94946 43.34779,1.32925 44.45079,0 1.10299,-1.32924 16.65433,-0.12821 17.09553,0.25158 l 0.7253,0.42712 1.42053,-0.0316"
       id="path3378-5-2-1"
       inkscape:connector-curvature="0"
       sodipodi:nodetypes="csssccc" />
    <path
       style="fill:none;fill-rule:evenodd;stroke:#000000;stroke-width:1px;stroke-linecap:butt;stroke-linejoin:miter;stroke-opacity:1"
       d="m 235.97047,472.05644 c 0,0 -6.91353,-1.24903 -6.24701,-1.29351 0.6386,-0.0426 3.14959,-0.8171 3.89101,-1.06424 1.51522,-0.50508 -3.33596,-1.60452 -3.33596,-1.60452 l 6.06091,-1.51522 0,-10.10153 0,0 0,0 0,0 0,0 0,0"
       id="path3461-9-5"
       inkscape:connector-curvature="0"
       sodipodi:nodetypes="csscccccccc" />
    <path
       style="fill:none;fill-rule:evenodd;stroke:#000000;stroke-width:1px;stroke-linecap:butt;stroke-linejoin:miter;stroke-opacity:1"
       d="m 257.51155,456.76103 -0.0893,18.70971 c 0,0 1.51523,2.52538 -10.35406,1.76776 -11.86929,-0.75761 -12.12183,-3.28299 -12.12183,-3.28299 0,0 1.26269,0 2.77792,-0.50508 1.51523,-0.50507 -2.77792,-1.51523 -2.77792,-1.51523 l 6.06091,-1.51522 0,-10.10153 0,0 0,0 0,0 0,0 0,-4.30804"
       id="path3461-7-3-5"
       inkscape:connector-curvature="0"
       sodipodi:nodetypes="ccscscccccccc" />
    <path
       style="fill:none;fill-rule:evenodd;stroke:#000000;stroke-width:0.81045389px;stroke-linecap:butt;stroke-linejoin:miter;stroke-opacity:1"
       d="m 443.93352,454.89881 c 0,0 17.53765,-3.03829 21.72905,-2.08883 4.19138,0.94949 43.34779,1.32925 44.45079,0 1.07832,-1.2995 15.77701,-0.4268 16.93227,-0.27925 0.0977,0.0125 4.72391,-5.05897 0.93985,-8.42245"
       id="path3378-5-2-4-4"
       inkscape:connector-curvature="0"
       sodipodi:nodetypes="csssc" />
    <path
       style="fill:none;fill-rule:evenodd;stroke:#000000;stroke-width:1px;stroke-linecap:butt;stroke-linejoin:miter;stroke-opacity:1"
       d="m 469.14267,468.68374 c 0,0 -6.91353,-1.24903 -6.24701,-1.29351 0.6386,-0.0426 3.14959,-0.8171 3.89101,-1.06424 1.51522,-0.50508 -3.33596,-1.60452 -3.33596,-1.60452 l 6.06091,-1.51522 0,-10.10153 0,0 0,0 0,0 0,0 0,0"
       id="path3461-9-7-7"
       inkscape:connector-curvature="0"
       sodipodi:nodetypes="csscccccccc" />
    <path
       style="fill:none;fill-rule:evenodd;stroke:#000000;stroke-width:1px;stroke-linecap:butt;stroke-linejoin:miter;stroke-opacity:1"
       d="m 490.68375,453.38833 -0.0893,18.70971 c 0,0 1.51523,2.52538 -10.35406,1.76776 -11.86929,-0.75761 -12.12183,-3.28299 -12.12183,-3.28299 0,0 1.26269,0 2.77792,-0.50508 1.51523,-0.50507 -2.77792,-1.51523 -2.77792,-1.51523 l 6.06091,-1.51522 0,-10.10153 0,0 0,0 0,0 0,0 0,-4.30804"
       id="path3461-7-3-8-6"
       inkscape:connector-curvature="0"
       sodipodi:nodetypes="ccscscccccccc" />
    <path
       inkscape:connector-curvature="0"
       style="fill:none;fill-rule:evenodd;stroke:#000000;stroke-width:0.80596828px;stroke-linecap:butt;stroke-linejoin:miter;stroke-opacity:1"
       d="m 263.0302,363.15512 c -4.91223,-0.16877 -14.83018,-9.10699 -19.68521,-9.57054 -2.50169,-0.23886 -14.73071,5.14688 -17.63686,6.68737 -24.43758,12.95387 -67.38012,-12.21725 -72.67455,-5.19376 -5.17826,5.29456 -3.90792,5.10502 0.54771,7.733 13.4966,7.96043 50.63604,34.08432 48.0382,31.89268 -3.00957,-3.95264 -37.8067,17.53032 -55.80178,17.46072 -4.01658,-0.0155 -2.56607,12.31342 -1.71767,15.41704 1.21254,4.43572 19.1203,-9.80442 55.73437,-14.83067 6.43454,-0.88331 1.30613,-3.41819 6.07948,12.05196 2.19167,7.10309 0.53392,4.65474 0.9574,9.98634 0.53592,6.74721 -0.58077,12.34084 0.0443,14.06453 1.28173,3.53443 8.77785,-0.0299 14.76667,-1.5934 3.99246,-1.04233 4.48829,-0.53242 10.69555,-0.55397 1.3212,-0.005 0.29783,-1.21462 4.67621,-1.13925 10.17629,0.17513 27.2382,-1.50765 41.15679,1.49552 19.90711,4.29528 17.59215,-0.71448 17.59215,-0.71448 0,0 -2.3146,-73.02059 -4.62938,-78.74764 -1.44674,-3.57939 -16.81814,-4.36155 -28.14338,-4.44545 z"
       id="path3346-3-7-4-5"
       sodipodi:nodetypes="csscscssssssscsscsc" />
    <path
       style="fill:none;fill-rule:evenodd;stroke:#000000;stroke-width:1px;stroke-linecap:butt;stroke-linejoin:miter;stroke-opacity:1"
       d="m 290.83114,366.89327 c 2.36146,-1.45188 1.40475,0.26829 2.95154,-0.86813 l 2.5096,-0.0158"
       id="path3722-6"
       inkscape:connector-curvature="0"
       sodipodi:nodetypes="ccc" />
    <path
       style="fill:none;fill-rule:evenodd;stroke:#000000;stroke-width:0.76214665px;stroke-linecap:butt;stroke-linejoin:miter;stroke-opacity:1"
       d="m 446.31093,361.68124 c -0.48488,0.41056 -2.21528,-0.91102 -1.68231,3.97539 0,0 2.27012,12.15413 2.4744,25.71665 0.20029,13.2987 0.85516,28.88648 1.62357,39.71581 0.47897,6.7506 -0.51908,12.34704 0.0397,14.0716 1.14556,3.53621 7.84532,-0.0299 13.19791,-1.59421 3.56831,-1.04285 4.01147,-0.53268 9.5593,-0.55424 1.18084,-0.005 0.26619,-1.21523 4.17943,-1.13982 9.09519,0.17521 24.3445,-1.50841 36.78444,1.49626 17.79225,4.29745 15.72322,-0.71483 15.72322,-0.71483 0,0 4.41884,-29.76844 2.65361,-48.50648 -0.67957,-7.21366 3.01507,-13.88567 3.10484,-15.57665 1.99612,-37.60013 -34.08755,-26.90027 -41.11047,-22.93988 -21.7987,8.46277 -33.78908,-5.21024 -46.54764,6.0504 z"
       id="path3346-3-7-5-9"
       inkscape:connector-curvature="0"
       sodipodi:nodetypes="ccsscscsscsscc" />
    <path
       style="fill:none;fill-rule:evenodd;stroke:#000000;stroke-width:1px;stroke-linecap:butt;stroke-linejoin:miter;stroke-opacity:1"
       d="m 522.1151,352.86364 c 0,0 -4.46428,-17.14285 7.14286,-19.64285 11.60714,-2.50001 13.39286,2.14285 15.71429,-6.42858 2.32142,-8.57143 2.32142,-8.57143 2.32142,-8.57143"
       id="path3739-3"
       inkscape:connector-curvature="0" />
    <path
       style="fill:none;fill-rule:evenodd;stroke:#000000;stroke-width:1px;stroke-linecap:butt;stroke-linejoin:miter;stroke-opacity:1"
       d="m 526.74228,355.9017 c 0,0 -4.99999,-15.26785 6.60715,-17.76784 11.60714,-2.50001 12.99771,1.81337 15.53571,-6.69644 l 3.03571,-10.17857"
       id="path3739-0-7"
       inkscape:connector-curvature="0"
       sodipodi:nodetypes="cssc" />
    <path
       style="fill:none;fill-rule:evenodd;stroke:#000000;stroke-width:1px;stroke-linecap:butt;stroke-linejoin:miter;stroke-opacity:1"
       d="m 552.02582,321.34579 -3.48214,2.5 -1.25,-5.44643 -6.16072,1.33929 4.64286,-3.57143 -3.83928,-5 6.16071,3.83929 6.25,-4.01786 -3.30357,5.26786 10.17857,-0.98215 -5.26786,2.94643 3.21429,6.16071 z"
       id="path3756-4"
       inkscape:connector-curvature="0" />
    <path
       style="fill:none;fill-rule:evenodd;stroke:#000000;stroke-width:1.00369143px;stroke-linecap:butt;stroke-linejoin:miter;stroke-opacity:1"
       d="m 300.30481,382.5653 c 64.37051,-7.4492 50.24971,-11.48944 64.37051,-7.4492 14.12081,4.04025 16.41066,9.8481 34.47512,5.55534 18.06445,-4.29276 36.89219,-4.29276 36.89219,-4.29276 l 0,0 0,0 0.25443,0 0,0"
       id="path4659"
       inkscape:connector-curvature="0" />
    <path
       style="fill:none;fill-rule:evenodd;stroke:#000000;stroke-width:1.00438201px;stroke-linecap:butt;stroke-linejoin:miter;stroke-opacity:1"
       d="m 302.02252,403.94633 c 64.4602,-7.44908 50.31973,-11.48926 64.4602,-7.44908 14.14048,4.04018 16.43353,9.84793 34.52316,5.55525 18.08964,-4.29269 36.94361,-4.29269 36.94361,-4.29269 l 0,0 0,0 0.25478,0 0,0"
       id="path4659-5"
       inkscape:connector-curvature="0" />
    <path
       style="fill:none;fill-rule:evenodd;stroke:#000000;stroke-width:1.00444579px;stroke-linecap:butt;stroke-linejoin:miter;stroke-opacity:1"
       d="m 439.48234,413.69517 c 0,0 -5.35296,12.36883 -40.52951,6.81548 -35.17657,-5.55336 -15.80396,-3.53395 -56.07857,-6.05821 -40.27463,-2.52425 -40.01973,7.0679 -40.01973,7.0679 l 0,0 0,0 0,0"
       id="path4676"
       inkscape:connector-curvature="0" />
    <path
       style="fill:none;fill-rule:evenodd;stroke:#000000;stroke-width:1.00312233px;stroke-linecap:butt;stroke-linejoin:miter;stroke-opacity:1"
       d="m 440.42282,428.67902 c 0,0 -5.33815,12.37049 -40.4174,6.81639 -35.07924,-5.55409 -15.76023,-3.53443 -55.92344,-6.05902 -40.16319,-2.52458 -39.90899,7.06886 -39.90899,7.06886 l 0,0 0,0 0,0"
       id="path4676-2"
       inkscape:connector-curvature="0" />
    <path
       style="fill:#859900;fill-opacity:1;stroke:#0078b4;stroke-width:0.25253814;stroke-opacity:1"
       d="m 306.61767,447.94177 c -0.61879,-0.1213 -1.35668,-0.45215 -1.63976,-0.73522 -0.59387,-0.59387 -0.60382,-0.8489 -0.27953,-7.16394 l 0.2188,-4.26071 0.92112,-0.96829 c 2.65572,-2.79175 9.60427,-4.51479 20.33973,-5.04369 6.01517,-0.29634 8.56369,-0.21396 28.15801,0.91022 18.77528,1.07718 19.44135,1.13913 28.66307,2.66562 13.90201,2.30124 19.9208,3.22523 23.48605,3.60552 15.06083,1.60645 26.60336,-0.29222 32.16273,-5.29057 l 1.29857,-1.16753 0,1.00554 c 0,1.10813 0.40936,8.89274 0.6307,11.99391 l 0.14042,1.96723 -0.95377,0.43188 c -0.81839,0.37057 -1.84991,0.4318 -7.26722,0.43137 -3.5816,-2.8e-4 -7.46083,-0.14052 -8.9651,-0.32408 -1.45841,-0.17797 -5.32225,-0.65922 -8.5863,-1.06944 -13.45529,-1.69103 -24.05248,-2.07178 -48.61359,-1.74663 -19.5599,0.25894 -20.48404,0.29486 -21.53228,0.83692 -0.66996,0.34645 -1.79806,0.41041 -7.30766,0.41433 -7.40025,0.005 -8.52184,0.13025 -17.87962,1.99259 -5.1732,1.02955 -10.92595,1.89599 -11.70664,1.76318 -0.0895,-0.0152 -0.66894,-0.12691 -1.28773,-0.24821 z"
       id="path4693"
       inkscape:connector-curvature="0" />
    <path
       style="fill:#2aa198;fill-opacity:1;stroke:#0078b4;stroke-width:0.25253814;stroke-opacity:1"
       d="m 412.041,436.14845 c -5.23912,-0.25915 -8.42015,-0.68583 -23.35978,-3.13334 -7.15314,-1.17188 -14.25577,-2.24908 -15.78363,-2.39379 -4.47399,-0.42374 -31.83308,-2.00284 -37.75445,-2.17909 -13.71124,-0.40811 -24.95757,1.37171 -29.21833,4.62402 -0.62474,0.47687 -1.16539,0.83085 -1.20145,0.78663 -0.12246,-0.15016 -1.14815,-10.68076 -1.14782,-11.78445 4.1e-4,-1.36124 0.59719,-2.2465 2.21375,-3.28385 1.69322,-1.08653 4.26159,-2.00997 7.5093,-2.69991 5.00672,-1.06362 7.73324,-1.2534 17.80394,-1.23927 7.93326,0.0111 11.92925,0.16561 24.62247,0.95189 8.33375,0.51623 16.11824,1.05449 17.29886,1.19613 1.18061,0.14164 6.91954,1.04349 12.75317,2.00411 19.53525,3.21685 23.96743,3.7013 31.69354,3.46415 9.23873,-0.28357 15.78347,-2.12323 20.12023,-5.65556 0.74003,-0.60277 1.3466,-1.0094 1.34792,-0.90363 0.001,0.10577 0.17006,2.69244 0.37497,5.74815 0.52866,7.88371 0.633,7.06963 -1.11989,8.73762 -4.54782,4.32756 -13.82165,6.37014 -26.1528,5.76019 z"
       id="path4695"
       inkscape:connector-curvature="0" />
    <path
       style="fill:#268bd2;fill-opacity:1;stroke:#0078b4;stroke-width:0.25253814;stroke-opacity:1"
       d="m 409.38935,421.12364 c -0.48614,-0.0547 -2.13395,-0.22225 -3.6618,-0.37234 -3.42342,-0.33628 -6.45929,-0.79348 -19.95052,-3.00454 -5.83363,-0.95606 -11.6862,-1.86152 -13.00571,-2.01213 -1.31951,-0.15061 -9.16082,-0.69182 -17.42513,-1.20268 -16.82565,-1.04008 -30.73781,-1.2838 -36.23922,-0.63484 -6.74443,0.79558 -11.65359,2.19306 -14.35742,4.0871 -1.37723,0.96475 -1.42514,0.97833 -1.54231,0.43702 -0.2237,-1.03351 -0.94647,-13.59615 -0.79116,-13.75146 0.0845,-0.0845 3.64725,-0.58596 7.91719,-1.11435 18.82439,-2.32941 28.44514,-3.92399 44.76038,-7.41873 2.36132,-0.50579 3.57034,-0.64217 4.79823,-0.54124 2.27721,0.18718 8.98103,2.17829 13.51079,4.01287 9.80592,3.97145 11.72904,4.49092 16.62577,4.49092 3.63993,0 5.5395,-0.26085 12.06836,-1.65723 10.87238,-2.32537 19.26998,-3.34522 32.97158,-4.00428 l 2.57179,-0.1237 0.14379,1.31424 c 0.2383,2.17797 0.89981,11.88125 0.89981,13.1986 0,1.16105 -0.0762,1.30096 -1.38002,2.53391 -2.55298,2.4142 -6.97551,4.27956 -12.50957,5.27635 -2.29267,0.41295 -13.0417,0.75243 -15.40483,0.48651 z"
       id="path4697"
       inkscape:connector-curvature="0" />
    <path
       style="fill:#6c71c4;fill-opacity:1;stroke:#0078b4;stroke-width:0.25253814;stroke-opacity:1"
       d="m 302.21035,402.50366 c -0.0656,-0.44194 -0.2374,-3.87187 -0.3818,-7.62206 -0.1444,-3.75019 -0.39192,-7.87528 -0.55004,-9.16687 -0.15811,-1.29158 -0.22462,-2.4112 -0.14778,-2.48803 0.0768,-0.0768 3.69835,-0.58366 8.04781,-1.12626 14.8284,-1.84988 27.87687,-3.89037 36.25162,-5.66894 12.05224,-2.55956 11.41939,-2.45623 13.22712,-2.15979 3.83698,0.62919 9.48168,2.49023 17.1445,5.6525 8.01792,3.3088 12.63861,3.62499 22.47589,1.53801 8.91912,-1.8922 14.40857,-2.78807 21.33947,-3.48256 5.11793,-0.51283 11.05278,-0.902 13.75532,-0.902 l 2.22465,0 0.14606,0.82075 c 0.17495,0.98306 1.33484,12.60627 1.63176,16.35184 0.12046,1.51951 0.11493,2.71585 -0.0129,2.80201 -0.12274,0.0827 -2.34726,0.22205 -4.94339,0.30966 -5.9538,0.20093 -11.8695,0.74141 -18.48355,1.68873 -5.01409,0.71815 -7.15292,1.11873 -14.89975,2.79055 -2.97828,0.64273 -4.43961,0.81377 -7.82869,0.91627 -5.47025,0.16545 -7.13205,-0.19816 -14.51794,-3.17657 -7.91239,-3.19072 -13.54988,-4.94089 -16.88539,-5.24211 -1.13813,-0.10277 -2.3623,0.0321 -4.58335,0.50487 -9.81457,2.08923 -13.47282,2.81413 -18.68782,3.70306 -7.32709,1.24895 -16.15056,2.51762 -25.38009,3.64923 -3.95853,0.48535 -7.56297,0.93393 -8.00987,0.99685 -0.75071,0.1057 -0.8216,0.0533 -0.93179,-0.68914 z"
       id="path4699"
       inkscape:connector-curvature="0" />
    <path
       style="fill:#d33682;fill-opacity:1;stroke:#0078b4;stroke-width:0.25253814;stroke-opacity:1"
       d="m 300.68525,381.30767 c -0.0673,-0.31251 -0.36094,-1.81827 -0.65258,-3.34613 -0.29164,-1.52785 -0.97743,-4.51682 -1.52399,-6.64214 -0.54655,-2.12532 -0.99372,-4.30085 -0.99372,-4.83451 l 0,-0.97028 0.99082,0.2515 c 0.85598,0.21727 1.25979,0.14882 2.96732,-0.50298 4.80175,-1.83292 8.12155,-2.42961 13.59326,-2.44321 4.81148,-0.012 6.10718,0.17784 11.15288,1.63368 1.91051,0.55124 4.61472,1.1689 6.00937,1.37257 8.73611,1.27581 21.24792,0.35946 36.5021,-2.67338 l 3.91434,-0.77825 18.30902,0.13044 c 21.42649,0.15265 29.85833,0.60247 37.1231,1.98042 3.59304,0.68151 5.20187,1.42867 5.71363,2.65348 0.41199,0.98604 1.19735,4.77837 1.48771,7.18385 l 0.17043,1.41194 -4.25409,0.17197 c -10.69056,0.43216 -21.35546,1.77933 -31.27568,3.95068 -6.48883,1.42028 -7.91505,1.61536 -11.74302,1.60622 -4.49442,-0.0107 -6.3536,-0.4789 -13.8896,-3.49766 -6.34941,-2.54344 -11.49766,-4.21181 -14.7946,-4.79443 -2.43464,-0.43024 -3.44962,-0.31639 -9.8822,1.10842 -8.23759,1.82463 -15.31623,3.08569 -26.20964,4.66924 -4.74932,0.6904 -21.92434,2.92677 -22.47721,2.92677 -0.0634,0 -0.17037,-0.25569 -0.23765,-0.56821 z"
       id="path4701"
       inkscape:connector-curvature="0" />
    <path
       style="fill:#657b83;fill-opacity:0;stroke:#0078b4;stroke-width:0.35714287;stroke-opacity:1"
       d="m 301.19546,446.17567 c -0.98214,-0.12472 -2.46875,-0.14306 -3.30357,-0.0407 -1.31488,0.16115 -1.51788,0.096 -1.51801,-0.48752 -9e-5,-0.37044 -0.16193,-4.85211 -0.35965,-9.95925 -1.59134,-41.10462 -2.90793,-62.59984 -4.15901,-67.90184 -0.16175,-0.68547 0.0167,-0.78345 1.84278,-1.0116 1.11204,-0.13894 2.09991,-0.17459 2.19529,-0.0792 0.0954,0.0954 0.79169,2.64683 1.54738,5.66991 1.96401,7.85686 2.80246,14.17907 3.21584,24.24861 0.54369,13.24364 1.58121,27.60145 2.51389,34.78842 0.36055,2.77827 0.37767,9.11178 0.0343,12.67857 l -0.22349,2.32143 -1.78572,-0.22677 z"
       id="path4705"
       inkscape:connector-curvature="0" />
    <path
       style="fill:#b58900;fill-opacity:0;stroke:#0078b4;stroke-width:0.35714287;stroke-opacity:1"
       d="m 296.5779,441.13459 c -0.12455,-2.60268 -0.54588,-12.36608 -0.93629,-21.69643 -1.22966,-29.38758 -2.4937,-48.51715 -3.40256,-51.49353 -0.14717,-0.48195 0.14524,-0.64995 1.47955,-0.85004 2.00553,-0.30075 1.99037,-0.31961 3.01141,3.74918 2.3016,9.17176 3.01258,14.66733 3.7456,28.95153 0.62217,12.12422 1.42153,23.15046 2.16195,29.82143 0.56062,5.05106 0.65125,9.25823 0.29121,13.51754 l -0.23098,2.73246 -2.94672,0 -2.94672,0 -0.22645,-4.73214 z"
       id="path4707"
       inkscape:connector-curvature="0" />
    <path
       style="fill:none;fill-rule:evenodd;stroke:#000000;stroke-width:1px;stroke-linecap:butt;stroke-linejoin:miter;stroke-opacity:1"
       d="m 343.26742,609.38812 c -10.4841,-0.0502 -18.72071,0.15039 -18.72071,0.15039 0,0 -30.71428,7.14258 -45,2.14258 -11.8375,-4.14313 -23.20396,-0.68033 -27.25,1.29883 -0.83703,0.40944 -3.67003,-2.24418 -2.75,2.62891 0,0 3.91886,12.12096 4.27149,25.64648 0.34577,13.26241 1.47627,28.80765 2.80273,39.60742 0.82684,6.73219 -0.89606,12.31336 0.0684,14.03321 1.97755,3.52656 13.54317,-0.0298 22.78321,-1.58985 6.15989,-1.04001 6.92489,-0.53123 16.50195,-0.55273 2.03846,-0.005 0.45952,-1.21192 7.21484,-1.13672 15.70079,0.17474 42.02528,-1.50429 63.49999,1.49219 30.71429,4.28572 27.14258,-0.71289 27.14258,-0.71289 0,0 -3.57115,-72.85798 -7.14258,-78.57227 -2.23214,-3.57142 -25.94838,-4.35184 -43.42186,-4.43555 z"
       id="path3346-3-7-3-5"
       inkscape:connector-curvature="0"
       sodipodi:nodetypes="ccsscsscscsscscc" />
    <path
       style="fill:none;fill-rule:evenodd;stroke:#000000;stroke-width:1.0258491px;stroke-linecap:butt;stroke-linejoin:miter;stroke-opacity:1"
       d="m 248.79233,704.45036 c 0,0 30.1362,-2.83284 37.33857,-1.94758 7.20236,0.88528 74.48761,1.23936 76.38297,0 1.89535,-1.23936 29.5676,-0.7082 30.32575,-0.35409 l 0.75812,0.35409 0,0 -0.18952,-0.35409 0.18952,0.17705"
       id="path3378-5-6-4"
       inkscape:connector-curvature="0"
       sodipodi:nodetypes="cssscccc" />
    <path
       style="fill:none;fill-rule:evenodd;stroke:#000000;stroke-width:1.00702882px;stroke-linecap:butt;stroke-linejoin:miter;stroke-opacity:1"
       d="m 248.82478,694.48702 c 0,0 5.69704,-0.62332 7.92137,0.77915 2.22434,1.40247 1.11217,0.46749 1.11217,0.46749"
       id="path3400-1-7"
       inkscape:connector-curvature="0"
       sodipodi:nodetypes="csc" />
    <path
       style="fill:none;fill-rule:evenodd;stroke:#000000;stroke-width:0.91897225px;stroke-linecap:butt;stroke-linejoin:miter;stroke-opacity:1"
       d="m 386.74733,613.53818 c 7.09991,-1.67649 6.34294,-2.32129 7.09991,-1.67649 0.75697,0.6448 1.14851,-0.6448 1.14851,-0.6448"
       id="path3402-3-0-4"
       inkscape:connector-curvature="0"
       sodipodi:nodetypes="csc" />
    <path
       style="fill:none;fill-rule:evenodd;stroke:#000000;stroke-width:1px;stroke-linecap:butt;stroke-linejoin:miter;stroke-opacity:1"
       d="m 274.08151,718.33415 c 0,0 -6.91353,-1.24903 -6.24701,-1.29351 0.6386,-0.0426 3.14959,-0.8171 3.89101,-1.06424 1.51522,-0.50508 -3.33596,-1.60452 -3.33596,-1.60452 l 6.06091,-1.51522 0,-10.10153 0,0 0,0 0,0 0,0 0,0"
       id="path3461-6-4"
       inkscape:connector-curvature="0"
       sodipodi:nodetypes="csscccccccc" />
    <path
       style="fill:none;fill-rule:evenodd;stroke:#000000;stroke-width:1px;stroke-linecap:butt;stroke-linejoin:miter;stroke-opacity:1"
       d="m 295.62259,703.03874 -0.0893,18.70971 c 0,0 1.51523,2.52538 -10.35406,1.76776 -11.86929,-0.75761 -12.12183,-3.28299 -12.12183,-3.28299 0,0 1.26269,0 2.77792,-0.50508 1.51523,-0.50507 -2.77792,-1.51523 -2.77792,-1.51523 l 6.06091,-1.51522 0,-10.10153 0,0 0,0 0,0 0,0 0,-4.30804"
       id="path3461-7-32-3"
       inkscape:connector-curvature="0"
       sodipodi:nodetypes="ccscscccccccc" />
    <path
       style="fill:none;fill-rule:evenodd;stroke:#000000;stroke-width:1px;stroke-linecap:butt;stroke-linejoin:miter;stroke-opacity:1"
       d="m 342.25716,721.97316 c 0,0 -6.91353,-1.24903 -6.24701,-1.29351 0.6386,-0.0426 3.14959,-0.8171 3.89101,-1.06424 1.51522,-0.50508 -3.33596,-1.60452 -3.33596,-1.60452 l 6.06091,-1.51522 0,-10.10153 0,0 0,0 0,0 0,0 0.0631,-3.21986"
       id="path3461-0-0-0"
       inkscape:connector-curvature="0"
       sodipodi:nodetypes="csscccccccc" />
    <path
       style="fill:none;fill-rule:evenodd;stroke:#000000;stroke-width:1px;stroke-linecap:butt;stroke-linejoin:miter;stroke-opacity:1"
       d="m 363.86136,702.25833 -0.0893,18.70971 c 0,0 1.4521,6.9448 -10.41719,6.18718 -11.86928,-0.75761 -12.12182,-3.28299 -12.12182,-3.28299 0,0 1.26269,0 2.77792,-0.50508 1.51523,-0.50507 -2.77792,-1.51523 -2.77792,-1.51523 l 6.06091,-1.51522 0,-10.10153 0,0 0,0 0,0 0,0 0,-7.08596"
       id="path3461-7-9-6-7"
       inkscape:connector-curvature="0"
       sodipodi:nodetypes="ccscscccccccc" />
    <path
       style="fill:none;fill-rule:evenodd;stroke:#000000;stroke-width:1.00369143px;stroke-linecap:butt;stroke-linejoin:miter;stroke-opacity:1"
       d="m 252.89351,630.22821 c 64.37051,-7.4492 50.24971,-11.48944 64.37051,-7.4492 14.12081,4.04025 16.41066,9.8481 34.47511,5.55534 18.06445,-4.29276 36.89219,-4.29276 36.89219,-4.29276 l 0,0 0,0 0.25443,0 0,0"
       id="path4659-8"
       inkscape:connector-curvature="0" />
    <path
       style="fill:none;fill-rule:evenodd;stroke:#000000;stroke-width:1.00438201px;stroke-linecap:butt;stroke-linejoin:miter;stroke-opacity:1"
       d="m 254.61122,651.60924 c 64.4602,-7.44908 50.31973,-11.48926 64.4602,-7.44908 14.14048,4.04018 16.43353,9.84793 34.52315,5.55525 18.08964,-4.29269 36.94361,-4.29269 36.94361,-4.29269 l 0,0 0,0 0.25478,0 0,0"
       id="path4659-5-6"
       inkscape:connector-curvature="0" />
    <path
       style="fill:none;fill-rule:evenodd;stroke:#000000;stroke-width:1.00444579px;stroke-linecap:butt;stroke-linejoin:miter;stroke-opacity:1"
       d="m 392.07103,661.35808 c 0,0 -5.35296,12.36883 -40.52951,6.81548 -35.17656,-5.55336 -15.80395,-3.53395 -56.07856,-6.05821 -40.27463,-2.52425 -40.01973,7.0679 -40.01973,7.0679 l 0,0 0,0 0,0"
       id="path4676-8"
       inkscape:connector-curvature="0" />
    <path
       style="fill:none;fill-rule:evenodd;stroke:#000000;stroke-width:1.00312233px;stroke-linecap:butt;stroke-linejoin:miter;stroke-opacity:1"
       d="m 393.01151,676.34193 c 0,0 -5.33815,12.37049 -40.4174,6.81639 -35.07923,-5.55409 -15.76022,-3.53443 -55.92343,-6.05902 -40.16319,-2.52458 -39.90899,7.06886 -39.90899,7.06886 l 0,0 0,0 0,0"
       id="path4676-2-8"
       inkscape:connector-curvature="0" />
    <path
       style="fill:#859900;fill-opacity:1;stroke:#0078b4;stroke-width:0.25253814;stroke-opacity:1"
       d="m 259.20637,695.60468 c -0.61879,-0.1213 -1.35668,-0.45215 -1.63976,-0.73522 -0.59387,-0.59387 -0.60382,-0.8489 -0.27953,-7.16394 l 0.2188,-4.26071 0.92112,-0.96829 c 2.65572,-2.79175 9.60427,-4.51479 20.33973,-5.04369 6.01517,-0.29634 8.56369,-0.21396 28.15801,0.91022 18.77528,1.07718 19.44135,1.13913 28.66307,2.66562 13.902,2.30124 19.92079,3.22523 23.48604,3.60552 15.06083,1.60645 26.60336,-0.29222 32.16273,-5.29057 l 1.29857,-1.16753 0,1.00554 c 0,1.10813 0.40936,8.89274 0.6307,11.99391 l 0.14042,1.96723 -0.95377,0.43188 c -0.81839,0.37057 -1.84991,0.4318 -7.26722,0.43137 -3.5816,-2.8e-4 -7.46083,-0.14052 -8.9651,-0.32408 -1.45841,-0.17797 -5.32225,-0.65922 -8.5863,-1.06944 -13.45529,-1.69103 -24.05247,-2.07178 -48.61358,-1.74663 -19.5599,0.25894 -20.48404,0.29486 -21.53228,0.83692 -0.66996,0.34645 -1.79806,0.41041 -7.30766,0.41433 -7.40025,0.005 -8.52184,0.13025 -17.87962,1.99259 -5.1732,1.02955 -10.92595,1.89599 -11.70664,1.76318 -0.0895,-0.0152 -0.66894,-0.12691 -1.28773,-0.24821 z"
       id="path4693-4"
       inkscape:connector-curvature="0" />
    <path
       style="fill:#2aa198;fill-opacity:1;stroke:#0078b4;stroke-width:0.25253814;stroke-opacity:1"
       d="m 364.62969,683.81136 c -5.23912,-0.25915 -8.42015,-0.68583 -23.35977,-3.13334 -7.15314,-1.17188 -14.25577,-2.24908 -15.78363,-2.39379 -4.47399,-0.42374 -31.83308,-2.00284 -37.75445,-2.17909 -13.71124,-0.40811 -24.95757,1.37171 -29.21833,4.62402 -0.62474,0.47687 -1.16539,0.83085 -1.20145,0.78663 -0.12246,-0.15016 -1.14815,-10.68076 -1.14782,-11.78445 4.1e-4,-1.36124 0.59719,-2.2465 2.21375,-3.28385 1.69322,-1.08653 4.26159,-2.00997 7.5093,-2.69991 5.00672,-1.06362 7.73324,-1.2534 17.80394,-1.23927 7.93326,0.0111 11.92925,0.16561 24.62247,0.95189 8.33375,0.51623 16.11824,1.05449 17.29886,1.19613 1.18061,0.14164 6.91954,1.04349 12.75317,2.00411 19.53524,3.21685 23.96742,3.7013 31.69353,3.46415 9.23873,-0.28357 15.78347,-2.12323 20.12023,-5.65556 0.74003,-0.60277 1.3466,-1.0094 1.34792,-0.90363 0.001,0.10577 0.17006,2.69244 0.37497,5.74815 0.52866,7.88371 0.633,7.06963 -1.11989,8.73762 -4.54782,4.32756 -13.82165,6.37014 -26.1528,5.76019 z"
       id="path4695-3"
       inkscape:connector-curvature="0" />
    <path
       style="fill:#268bd2;fill-opacity:1;stroke:#0078b4;stroke-width:0.25253814;stroke-opacity:1"
       d="m 361.97804,668.78655 c -0.48614,-0.0547 -2.13395,-0.22225 -3.6618,-0.37234 -3.42342,-0.33628 -6.45929,-0.79348 -19.95051,-3.00454 -5.83363,-0.95606 -11.6862,-1.86152 -13.00571,-2.01213 -1.31951,-0.15061 -9.16082,-0.69182 -17.42513,-1.20268 -16.82565,-1.04008 -30.73781,-1.2838 -36.23922,-0.63484 -6.74443,0.79558 -11.65359,2.19306 -14.35742,4.0871 -1.37723,0.96475 -1.42514,0.97833 -1.54231,0.43702 -0.2237,-1.03351 -0.94647,-13.59615 -0.79116,-13.75146 0.0845,-0.0845 3.64725,-0.58596 7.91719,-1.11435 18.82439,-2.32941 28.44514,-3.92399 44.76038,-7.41873 2.36132,-0.50579 3.57034,-0.64217 4.79823,-0.54124 2.27721,0.18718 8.98103,2.17829 13.51079,4.01287 9.80592,3.97145 11.72904,4.49092 16.62577,4.49092 3.63993,0 5.5395,-0.26085 12.06835,-1.65723 10.87238,-2.32537 19.26998,-3.34522 32.97158,-4.00428 l 2.57179,-0.1237 0.14379,1.31424 c 0.2383,2.17797 0.89981,11.88125 0.89981,13.1986 0,1.16105 -0.0762,1.30096 -1.38002,2.53391 -2.55298,2.4142 -6.97551,4.27956 -12.50957,5.27635 -2.29267,0.41295 -13.0417,0.75243 -15.40483,0.48651 z"
       id="path4697-1"
       inkscape:connector-curvature="0" />
    <path
       style="fill:#6c71c4;fill-opacity:1;stroke:#0078b4;stroke-width:0.25253814;stroke-opacity:1"
       d="m 254.79905,650.16657 c -0.0656,-0.44194 -0.2374,-3.87187 -0.3818,-7.62206 -0.1444,-3.75019 -0.39192,-7.87528 -0.55004,-9.16687 -0.15811,-1.29158 -0.22462,-2.4112 -0.14778,-2.48803 0.0768,-0.0768 3.69835,-0.58366 8.04781,-1.12626 14.8284,-1.84988 27.87687,-3.89037 36.25162,-5.66894 12.05224,-2.55956 11.41939,-2.45623 13.22712,-2.15979 3.83698,0.62919 9.48168,2.49023 17.1445,5.6525 8.01792,3.3088 12.63861,3.62499 22.47588,1.53801 8.91912,-1.8922 14.40857,-2.78807 21.33947,-3.48256 5.11793,-0.51283 11.05278,-0.902 13.75532,-0.902 l 2.22465,0 0.14606,0.82075 c 0.17495,0.98306 1.33484,12.60627 1.63176,16.35184 0.12046,1.51951 0.11493,2.71585 -0.0129,2.80201 -0.12274,0.0827 -2.34726,0.22205 -4.94339,0.30966 -5.9538,0.20093 -11.8695,0.74141 -18.48355,1.68873 -5.01409,0.71815 -7.15292,1.11873 -14.89975,2.79055 -2.97827,0.64273 -4.4396,0.81377 -7.82868,0.91627 -5.47025,0.16545 -7.13205,-0.19816 -14.51794,-3.17657 -7.91239,-3.19072 -13.54988,-4.94089 -16.88539,-5.24211 -1.13813,-0.10277 -2.3623,0.0321 -4.58335,0.50487 -9.81457,2.08923 -13.47282,2.81413 -18.68782,3.70306 -7.32709,1.24895 -16.15056,2.51762 -25.38009,3.64923 -3.95853,0.48535 -7.56297,0.93393 -8.00987,0.99685 -0.75071,0.1057 -0.8216,0.0533 -0.93179,-0.68914 z"
       id="path4699-4"
       inkscape:connector-curvature="0" />
    <path
       style="fill:#d33682;fill-opacity:1;stroke:#0078b4;stroke-width:0.25253814;stroke-opacity:1"
       d="m 253.27395,628.97058 c -0.0673,-0.31251 -0.36094,-1.81827 -0.65258,-3.34613 -0.29164,-1.52785 -0.97743,-4.51682 -1.52399,-6.64214 -0.54655,-2.12532 -0.99372,-4.30085 -0.99372,-4.83451 l 0,-0.97028 0.99082,0.2515 c 0.85598,0.21727 1.25979,0.14882 2.96732,-0.50298 4.80175,-1.83292 8.12155,-2.42961 13.59326,-2.44321 4.81148,-0.012 6.10718,0.17784 11.15288,1.63368 1.91051,0.55124 4.61472,1.1689 6.00937,1.37257 8.73611,1.27581 21.24792,0.35946 36.5021,-2.67338 l 3.91434,-0.77825 18.30902,0.13044 c 21.42648,0.15265 29.85832,0.60247 37.12309,1.98042 3.59304,0.68151 5.20187,1.42867 5.71363,2.65348 0.41199,0.98604 1.19735,4.77837 1.48771,7.18385 l 0.17043,1.41194 -4.25409,0.17197 c -10.69056,0.43216 -21.35546,1.77933 -31.27568,3.95068 -6.48882,1.42028 -7.91504,1.61536 -11.74301,1.60622 -4.49442,-0.0107 -6.3536,-0.4789 -13.8896,-3.49766 -6.34941,-2.54344 -11.49766,-4.21181 -14.7946,-4.79443 -2.43464,-0.43024 -3.44962,-0.31639 -9.8822,1.10842 -8.23759,1.82463 -15.31623,3.08569 -26.20964,4.66924 -4.74932,0.6904 -21.92434,2.92677 -22.47721,2.92677 -0.0634,0 -0.17037,-0.25569 -0.23765,-0.56821 z"
       id="path4701-9"
       inkscape:connector-curvature="0" />
    <path
       style="fill:none;fill-rule:evenodd;stroke:#000000;stroke-width:1px;stroke-linecap:butt;stroke-linejoin:miter;stroke-opacity:1"
       d="m 488.85911,607.56379 c -10.4841,-0.0502 -18.72071,0.15039 -18.72071,0.15039 0,0 -30.71428,7.14258 -45,2.14258 -11.8375,-4.14313 -23.20396,-0.68033 -27.25,1.29883 -0.83703,0.40944 -3.67003,-2.24418 -2.75,2.62891 0,0 3.91886,12.12096 4.27149,25.64648 0.34577,13.26241 1.47627,28.80765 2.80273,39.60742 0.82684,6.73219 -0.89606,12.31336 0.0684,14.03321 1.97755,3.52656 13.54317,-0.0298 22.78321,-1.58985 6.15989,-1.04001 6.92489,-0.53123 16.50195,-0.55273 2.03846,-0.005 0.45952,-1.21192 7.21484,-1.13672 15.70079,0.17474 42.02528,-1.50429 63.49998,1.49219 30.71429,4.28572 27.14258,-0.71289 27.14258,-0.71289 0,0 -3.57115,-72.85798 -7.14258,-78.57227 -2.23214,-3.57142 -25.94838,-4.35184 -43.42185,-4.43555 z"
       id="path3346-3-7-3-5-2"
       inkscape:connector-curvature="0"
       sodipodi:nodetypes="ccsscsscscsscscc" />
    <path
       style="fill:none;fill-rule:evenodd;stroke:#000000;stroke-width:1.0258491px;stroke-linecap:butt;stroke-linejoin:miter;stroke-opacity:1"
       d="m 394.73142,702.62045 c 0,0 30.1362,-2.83284 37.33857,-1.94758 7.20236,0.88528 74.4876,1.23936 76.38296,0 1.89535,-1.23936 29.5676,-0.7082 30.32575,-0.35409 l 0.75812,0.35409 0,0 -0.18952,-0.35409 0.18952,0.17705"
       id="path3378-5-6-4-0"
       inkscape:connector-curvature="0"
       sodipodi:nodetypes="cssscccc" />
    <path
       style="fill:none;fill-rule:evenodd;stroke:#000000;stroke-width:1.00702882px;stroke-linecap:butt;stroke-linejoin:miter;stroke-opacity:1"
       d="m 394.76387,692.65711 c 0,0 5.69704,-0.62332 7.92137,0.77915 2.22434,1.40247 1.11217,0.46749 1.11217,0.46749"
       id="path3400-1-7-6"
       inkscape:connector-curvature="0"
       sodipodi:nodetypes="csc" />
    <path
       style="fill:none;fill-rule:evenodd;stroke:#000000;stroke-width:1px;stroke-linecap:butt;stroke-linejoin:miter;stroke-opacity:1"
       d="m 532.67448,611.68741 c 8.5863,-1.6415 7.67085,-2.27285 8.5863,-1.6415 0.91545,0.63134 1.38896,-0.63135 1.38896,-0.63135"
       id="path3402-3-0-4-8"
       inkscape:connector-curvature="0"
       sodipodi:nodetypes="csc" />
    <path
       style="fill:none;fill-rule:evenodd;stroke:#000000;stroke-width:1px;stroke-linecap:butt;stroke-linejoin:miter;stroke-opacity:1"
       d="m 420.0206,716.50424 c 0,0 -6.91353,-1.24903 -6.24701,-1.29351 0.6386,-0.0426 3.14959,-0.8171 3.89101,-1.06424 1.51522,-0.50508 -3.33596,-1.60452 -3.33596,-1.60452 l 6.06091,-1.51522 0,-10.10153 0,0 0,0 0,0 0,0 0,0"
       id="path3461-6-4-9"
       inkscape:connector-curvature="0"
       sodipodi:nodetypes="csscccccccc" />
    <path
       style="fill:none;fill-rule:evenodd;stroke:#000000;stroke-width:1px;stroke-linecap:butt;stroke-linejoin:miter;stroke-opacity:1"
       d="m 441.56168,701.20883 -0.0893,18.70971 c 0,0 1.51523,2.52538 -10.35406,1.76776 -11.86929,-0.75761 -12.12183,-3.28299 -12.12183,-3.28299 0,0 1.26269,0 2.77792,-0.50508 1.51523,-0.50507 -2.77792,-1.51523 -2.77792,-1.51523 l 6.06091,-1.51522 0,-10.10153 0,0 0,0 0,0 0,0 0,-4.30804"
       id="path3461-7-32-3-2"
       inkscape:connector-curvature="0"
       sodipodi:nodetypes="ccscscccccccc" />
    <path
       style="fill:none;fill-rule:evenodd;stroke:#000000;stroke-width:1px;stroke-linecap:butt;stroke-linejoin:miter;stroke-opacity:1"
       d="m 488.19625,720.14325 c 0,0 -6.91353,-1.24903 -6.24701,-1.29351 0.6386,-0.0426 3.14959,-0.8171 3.89101,-1.06424 1.51522,-0.50508 -3.33596,-1.60452 -3.33596,-1.60452 l 6.06091,-1.51522 0,-10.10153 0,0 0,0 0,0 0,0 0.0631,-3.21986"
       id="path3461-0-0-0-6"
       inkscape:connector-curvature="0"
       sodipodi:nodetypes="csscccccccc" />
    <path
       style="fill:none;fill-rule:evenodd;stroke:#000000;stroke-width:1px;stroke-linecap:butt;stroke-linejoin:miter;stroke-opacity:1"
       d="m 509.80044,700.42842 -0.0893,18.70971 c 0,0 1.4521,6.9448 -10.41719,6.18718 -11.86927,-0.75761 -12.12181,-3.28299 -12.12181,-3.28299 0,0 1.26269,0 2.77792,-0.50508 1.51523,-0.50507 -2.77792,-1.51523 -2.77792,-1.51523 l 6.06091,-1.51522 0,-10.10153 0,0 0,0 0,0 0,0 0,-7.08596"
       id="path3461-7-9-6-7-6"
       inkscape:connector-curvature="0"
       sodipodi:nodetypes="ccscscccccccc" />
    <path
       style="fill:none;fill-rule:evenodd;stroke:#000000;stroke-width:1.00369143px;stroke-linecap:butt;stroke-linejoin:miter;stroke-opacity:1"
       d="m 398.8326,628.3983 c 64.37051,-7.4492 50.24971,-11.48944 64.37051,-7.4492 14.12081,4.04025 16.41066,9.8481 34.4751,5.55534 18.06445,-4.29276 36.89219,-4.29276 36.89219,-4.29276 l 0,0 0,0 0.25443,0 0,0"
       id="path4659-8-4"
       inkscape:connector-curvature="0" />
    <path
       style="fill:none;fill-rule:evenodd;stroke:#000000;stroke-width:1.00438201px;stroke-linecap:butt;stroke-linejoin:miter;stroke-opacity:1"
       d="m 400.55031,649.77933 c 64.4602,-7.44908 50.31973,-11.48926 64.4602,-7.44908 14.14048,4.04018 16.43353,9.84793 34.52314,5.55525 18.08964,-4.29269 36.94361,-4.29269 36.94361,-4.29269 l 0,0 0,0 0.25478,0 0,0"
       id="path4659-5-6-9"
       inkscape:connector-curvature="0" />
    <path
       style="fill:none;fill-rule:evenodd;stroke:#000000;stroke-width:1.00444579px;stroke-linecap:butt;stroke-linejoin:miter;stroke-opacity:1"
       d="m 538.01011,659.52817 c 0,0 -5.35296,12.36883 -40.52951,6.81548 -35.17655,-5.55336 -15.80394,-3.53395 -56.07855,-6.05821 -40.27463,-2.52425 -40.01973,7.0679 -40.01973,7.0679 l 0,0 0,0 0,0"
       id="path4676-8-5"
       inkscape:connector-curvature="0" />
    <path
       style="fill:none;fill-rule:evenodd;stroke:#000000;stroke-width:1.00312233px;stroke-linecap:butt;stroke-linejoin:miter;stroke-opacity:1"
       d="m 538.95059,674.51202 c 0,0 -5.33815,12.37049 -40.4174,6.81639 -35.07922,-5.55409 -15.76021,-3.53443 -55.92342,-6.05902 -40.16319,-2.52458 -39.90899,7.06886 -39.90899,7.06886 l 0,0 0,0 0,0"
       id="path4676-2-8-0"
       inkscape:connector-curvature="0" />
    <path
       style="fill:#859900;fill-opacity:1;stroke:#0078b4;stroke-width:0.25253814;stroke-opacity:1"
       d="m 405.14546,693.77477 c -0.61879,-0.1213 -1.35668,-0.45215 -1.63976,-0.73522 -0.59387,-0.59387 -0.60382,-0.8489 -0.27953,-7.16394 l 0.2188,-4.26071 0.92112,-0.96829 c 2.65572,-2.79175 9.60427,-4.51479 20.33973,-5.04369 6.01517,-0.29634 8.56369,-0.21396 28.15801,0.91022 18.77528,1.07718 19.44135,1.13913 28.66307,2.66562 13.90199,2.30124 19.92078,3.22523 23.48603,3.60552 15.06083,1.60645 26.60336,-0.29222 32.16273,-5.29057 l 1.29857,-1.16753 0,1.00554 c 0,1.10813 0.40936,8.89274 0.6307,11.99391 l 0.14042,1.96723 -0.95377,0.43188 c -0.81839,0.37057 -1.84991,0.4318 -7.26722,0.43137 -3.5816,-2.8e-4 -7.46083,-0.14052 -8.9651,-0.32408 -1.45841,-0.17797 -5.32225,-0.65922 -8.5863,-1.06944 -13.45529,-1.69103 -24.05246,-2.07178 -48.61357,-1.74663 -19.5599,0.25894 -20.48404,0.29486 -21.53228,0.83692 -0.66996,0.34645 -1.79806,0.41041 -7.30766,0.41433 -7.40025,0.005 -8.52184,0.13025 -17.87962,1.99259 -5.1732,1.02955 -10.92595,1.89599 -11.70664,1.76318 -0.0895,-0.0152 -0.66894,-0.12691 -1.28773,-0.24821 z"
       id="path4693-4-4"
       inkscape:connector-curvature="0" />
    <path
       style="fill:#2aa198;fill-opacity:1;stroke:#0078b4;stroke-width:0.25253814;stroke-opacity:1"
       d="m 510.56877,681.98145 c -5.23912,-0.25915 -8.42015,-0.68583 -23.35976,-3.13334 -7.15314,-1.17188 -14.25577,-2.24908 -15.78363,-2.39379 -4.47399,-0.42374 -31.83308,-2.00284 -37.75445,-2.17909 -13.71124,-0.40811 -24.95757,1.37171 -29.21833,4.62402 -0.62474,0.47687 -1.16539,0.83085 -1.20145,0.78663 -0.12246,-0.15016 -1.14815,-10.68076 -1.14782,-11.78445 4.1e-4,-1.36124 0.59719,-2.2465 2.21375,-3.28385 1.69322,-1.08653 4.26159,-2.00997 7.5093,-2.69991 5.00672,-1.06362 7.73324,-1.2534 17.80394,-1.23927 7.93326,0.0111 11.92925,0.16561 24.62247,0.95189 8.33375,0.51623 16.11824,1.05449 17.29886,1.19613 1.18061,0.14164 6.91954,1.04349 12.75317,2.00411 19.53523,3.21685 23.96741,3.7013 31.69352,3.46415 9.23873,-0.28357 15.78347,-2.12323 20.12023,-5.65556 0.74003,-0.60277 1.3466,-1.0094 1.34792,-0.90363 10e-4,0.10577 0.17006,2.69244 0.37497,5.74815 0.52866,7.88371 0.633,7.06963 -1.11989,8.73762 -4.54782,4.32756 -13.82165,6.37014 -26.1528,5.76019 z"
       id="path4695-3-8"
       inkscape:connector-curvature="0" />
    <path
       style="fill:#268bd2;fill-opacity:1;stroke:#0078b4;stroke-width:0.25253814;stroke-opacity:1"
       d="m 507.91712,666.95664 c -0.48614,-0.0547 -2.13395,-0.22225 -3.6618,-0.37234 -3.42342,-0.33628 -6.45929,-0.79348 -19.9505,-3.00454 -5.83363,-0.95606 -11.6862,-1.86152 -13.00571,-2.01213 -1.31951,-0.15061 -9.16082,-0.69182 -17.42513,-1.20268 -16.82565,-1.04008 -30.73781,-1.2838 -36.23922,-0.63484 -6.74443,0.79558 -11.65359,2.19306 -14.35742,4.0871 -1.37723,0.96475 -1.42514,0.97833 -1.54231,0.43702 -0.2237,-1.03351 -0.94647,-13.59615 -0.79116,-13.75146 0.0845,-0.0845 3.64725,-0.58596 7.91719,-1.11435 18.82439,-2.32941 28.44514,-3.92399 44.76038,-7.41873 2.36132,-0.50579 3.57034,-0.64217 4.79823,-0.54124 2.27721,0.18718 8.98103,2.17829 13.51079,4.01287 9.80592,3.97145 11.72904,4.49092 16.62577,4.49092 3.63993,0 5.5395,-0.26085 12.06834,-1.65723 10.87238,-2.32537 19.26998,-3.34522 32.97158,-4.00428 l 2.57179,-0.1237 0.14379,1.31424 c 0.2383,2.17797 0.89981,11.88125 0.89981,13.1986 0,1.16105 -0.0762,1.30096 -1.38002,2.53391 -2.55298,2.4142 -6.97551,4.27956 -12.50957,5.27635 -2.29267,0.41295 -13.0417,0.75243 -15.40483,0.48651 z"
       id="path4697-1-7"
       inkscape:connector-curvature="0" />
    <path
       style="fill:#6c71c4;fill-opacity:1;stroke:#0078b4;stroke-width:0.25253814;stroke-opacity:1"
       d="m 400.73814,648.33666 c -0.0656,-0.44194 -0.2374,-3.87187 -0.3818,-7.62206 -0.1444,-3.75019 -0.39192,-7.87528 -0.55004,-9.16687 -0.15811,-1.29158 -0.22462,-2.4112 -0.14778,-2.48803 0.0768,-0.0768 3.69835,-0.58366 8.04781,-1.12626 14.8284,-1.84988 27.87687,-3.89037 36.25162,-5.66894 12.05224,-2.55956 11.41939,-2.45623 13.22712,-2.15979 3.83698,0.62919 9.48168,2.49023 17.1445,5.6525 8.01792,3.3088 12.63861,3.62499 22.47587,1.53801 8.91912,-1.8922 14.40857,-2.78807 21.33947,-3.48256 5.11793,-0.51283 11.05278,-0.902 13.75532,-0.902 l 2.22465,0 0.14606,0.82075 c 0.17495,0.98306 1.33484,12.60627 1.63176,16.35184 0.12046,1.51951 0.11493,2.71585 -0.0129,2.80201 -0.12274,0.0827 -2.34726,0.22205 -4.94339,0.30966 -5.9538,0.20093 -11.8695,0.74141 -18.48355,1.68873 -5.01409,0.71815 -7.15292,1.11873 -14.89975,2.79055 -2.97826,0.64273 -4.43959,0.81377 -7.82867,0.91627 -5.47025,0.16545 -7.13205,-0.19816 -14.51794,-3.17657 -7.91239,-3.19072 -13.54988,-4.94089 -16.88539,-5.24211 -1.13813,-0.10277 -2.3623,0.0321 -4.58335,0.50487 -9.81457,2.08923 -13.47282,2.81413 -18.68782,3.70306 -7.32709,1.24895 -16.15056,2.51762 -25.38009,3.64923 -3.95853,0.48535 -7.56297,0.93393 -8.00987,0.99685 -0.75071,0.1057 -0.8216,0.0533 -0.93179,-0.68914 z"
       id="path4699-4-1"
       inkscape:connector-curvature="0" />
    <path
       style="fill:#d33682;fill-opacity:1;stroke:#0078b4;stroke-width:0.25253814;stroke-opacity:1"
       d="m 399.21304,627.14067 c -0.0673,-0.31251 -0.36094,-1.81827 -0.65258,-3.34613 -0.29164,-1.52785 -0.97743,-4.51682 -1.52399,-6.64214 -0.54655,-2.12532 -0.99372,-4.30085 -0.99372,-4.83451 l 0,-0.97028 0.99082,0.2515 c 0.85598,0.21727 1.25979,0.14882 2.96732,-0.50298 4.80175,-1.83292 8.12155,-2.42961 13.59326,-2.44321 4.81148,-0.012 6.10718,0.17784 11.15288,1.63368 1.91051,0.55124 4.61472,1.1689 6.00937,1.37257 8.73611,1.27581 21.24792,0.35946 36.5021,-2.67338 l 3.91434,-0.77825 18.30902,0.13044 c 21.42647,0.15265 29.85831,0.60247 37.12308,1.98042 3.59304,0.68151 5.20187,1.42867 5.71363,2.65348 0.41199,0.98604 1.19735,4.77837 1.48771,7.18385 l 0.17043,1.41194 -4.25409,0.17197 c -10.69056,0.43216 -21.35546,1.77933 -31.27568,3.95068 -6.48881,1.42028 -7.91503,1.61536 -11.743,1.60622 -4.49442,-0.0107 -6.3536,-0.4789 -13.8896,-3.49766 -6.34941,-2.54344 -11.49766,-4.21181 -14.7946,-4.79443 -2.43464,-0.43024 -3.44962,-0.31639 -9.8822,1.10842 -8.23759,1.82463 -15.31623,3.08569 -26.20964,4.66924 -4.74932,0.6904 -21.92434,2.92677 -22.47721,2.92677 -0.0634,0 -0.17037,-0.25569 -0.23765,-0.56821 z"
       id="path4701-9-7"
       inkscape:connector-curvature="0" />
  </g>
</svg>
